<?xml version="1.0" encoding="UTF-8"?>
<svg id="Capa_1" xmlns="http://www.w3.org/2000/svg" version="1.1" xmlns:xlink="http://www.w3.org/1999/xlink" viewBox="0 0 750 500">
  <!-- Generator: Adobe Illustrator 29.3.0, SVG Export Plug-In . SVG Version: 2.1.0 Build 146)  -->
  <defs>
    <style>
      .st0, .st1, .st2, .st3, .st4, .st5, .st6, .st7, .st8, .st9, .st10, .st11, .st12, .st13, .st14, .st15, .st16, .st17, .st18, .st19, .st20, .st21, .st22, .st23, .st24, .st25, .st26, .st27, .st28, .st29, .st30, .st31, .st32, .st33, .st34, .st35, .st36, .st37, .st38, .st39, .st40, .st41, .st42, .st43, .st44, .st45, .st46, .st47, .st48, .st49, .st50, .st51, .st52, .st53, .st54, .st55, .st56, .st57, .st58, .st59, .st60, .st61, .st62, .st63, .st64, .st65, .st66, .st67, .st68, .st69, .st70, .st71, .st72, .st73, .st74 {
        stroke: #000;
      }

      .st0, .st3, .st5, .st17, .st21, .st27, .st33, .st43, .st44, .st50, .st52, .st54, .st57, .st63, .st64, .st71, .st72, .st75 {
        fill: #9f7e00;
      }

      .st0, .st19, .st29, .st45 {
        stroke-width: 1.9px;
      }

      .st1 {
        stroke-width: .2px;
      }

      .st1, .st2, .st4, .st7, .st9, .st10, .st12, .st15, .st16, .st18, .st28, .st32, .st76, .st36, .st46, .st48, .st56, .st59, .st60, .st61, .st62, .st66, .st73 {
        fill: none;
      }

      .st2, .st41, .st54 {
        stroke-width: 2.5px;
      }

      .st77, .st78, .st79, .st80 {
        stroke-miterlimit: 80;
      }

      .st77, .st79 {
        stroke-width: 86.9px;
      }

      .st77, .st80 {
        stroke: #c8102e;
      }

      .st3, .st22, .st26, .st30, .st51, .st56 {
        stroke-width: 1.1px;
      }

      .st5 {
        stroke-width: .8px;
      }

      .st6, .st81, .st22, .st68 {
        fill: #dead00;
      }

      .st6, .st24 {
        stroke-width: 1.8px;
      }

      .st7, .st8, .st25, .st33, .st48, .st60, .st71, .st74 {
        stroke-linejoin: round;
      }

      .st7, .st15, .st17, .st20, .st25, .st37, .st42, .st71 {
        stroke-width: 1.9px;
      }

      .st8 {
        fill: #d85aac;
        stroke-width: 1.2px;
      }

      .st9 {
        stroke-linecap: round;
      }

      .st10 {
        stroke-width: 1.1px;
      }

      .st11, .st14, .st20, .st25, .st30, .st35, .st45, .st58, .st65, .st82, .st74 {
        fill: #b50027;
      }

      .st12 {
        stroke-width: 0px;
      }

      .st13, .st23, .st24, .st37, .st38, .st69 {
        fill: #0044ad;
      }

      .st13, .st65 {
        stroke-width: 2.9px;
      }

      .st14 {
        stroke-width: 1.2px;
      }

      .st16 {
        stroke-width: .7px;
      }

      .st18 {
        stroke-width: .3px;
      }

      .st83 {
        fill-opacity: .9;
      }

      .st83, .st84 {
        fill: #005bbf;
      }

      .st19, .st85, .st51, .st67 {
        fill: #006f46;
      }

      .st86, .st29, .st70 {
        fill: #fff;
      }

      .st21, .st63 {
        stroke-width: 1.5px;
      }

      .st26, .st40, .st87 {
        fill: #c8b100;
      }

      .st28 {
        stroke-width: 1px;
      }

      .st31, .st52 {
        stroke-width: .8px;
      }

      .st32 {
        stroke-width: .5px;
      }

      .st33 {
        stroke-width: 2.4px;
      }

      .st88 {
        fill: #b2b2b2;
      }

      .st34, .st49 {
        fill: #e6e6e6;
      }

      .st35, .st49, .st59, .st60, .st72 {
        stroke-width: 1px;
      }

      .st89 {
        clip-path: url(#clippath-1);
      }

      .st36 {
        stroke-width: 4px;
      }

      .st38, .st43 {
        stroke-width: 1.2px;
      }

      .st39 {
        fill: #db4446;
      }

      .st41 {
        fill: #b60028;
      }

      .st42 {
        fill: #0045af;
      }

      .st44, .st66 {
        stroke-width: 1.8px;
      }

      .st46 {
        stroke-width: .1px;
      }

      .st47 {
        fill: #2b1100;
        stroke-miterlimit: 3.9;
        stroke-width: 0px;
      }

      .st50, .st69 {
        stroke-width: 2.7px;
      }

      .st78 {
        stroke-width: 144.9px;
      }

      .st78, .st79 {
        stroke: #fff;
      }

      .st90 {
        fill: #ce1126;
      }

      .st55 {
        fill: #f6cb7e;
      }

      .st55, .st58, .st67 {
        stroke-width: 2.5px;
      }

      .st57 {
        stroke-width: 1.3px;
      }

      .st91 {
        fill: #ad1519;
      }

      .st80 {
        stroke-width: 57.9px;
      }

      .st61 {
        stroke-width: .5px;
      }

      .st62 {
        stroke-width: .8px;
      }

      .st63 {
        fill-rule: evenodd;
      }

      .st92 {
        fill: #012169;
      }

      .st64 {
        stroke-width: .5px;
      }

      .st93 {
        fill: #fabd00;
      }

      .st94 {
        clip-path: url(#clippath);
      }

      .st73 {
        stroke-width: .2px;
      }
    </style>
    <clipPath id="clippath">
      <rect class="st76" x="-.5" y="-1.5" width="751" height="503"/>
    </clipPath>
    <clipPath id="clippath-1">
      <polygon class="st76" points="375 250 750.5 250 750.5 501.5 375 501.5 -.5 501.5 -.5 250 -.5 -1.5 375 -1.5 750.5 -1.5 375 250"/>
    </clipPath>
  </defs>
  <rect class="st91" width="750" height="500"/>
  <rect class="st93" y="125" width="750" height="250"/>
  <g>
    <path class="st82" d="M249.8,223.1c-10.7,0-20.4-1.4-27.8-3.4,7.4-2.1,17.1-3.4,27.8-3.4,10.7,0,20.5,1.3,27.8,3.4-7.4,2.1-17.1,3.4-27.8,3.4"/>
    <g>
      <path class="st1" d="M225.7,197.6c0-1.2.9-2.2,2.1-2.2s2.1,1,2.1,2.2-.9,2.2-2.1,2.2-2.1-1-2.1-2.2Z"/>
      <path class="st14" d="M249.4,178.9c6.4,0,12.2,1,15.9,2.7,2.1,1.1,5,1.8,8.1,2.3,2.4.3,4.7.4,6.6.3,2.6,0,6.5.8,10.3,2.6,3.2,1.5,5.8,3.4,7.6,5.2l-1.5,1.5-.4,4.2-4.2,5.2-2.1,1.9-4.9,4.3-2.5.2-.8,2.4-31.9-4.1-32,4.1-.8-2.4-2.5-.2-4.9-4.3-2.1-1.9-4.2-5.2-.4-4.2-1.5-1.5c1.8-1.8,4.4-3.7,7.6-5.2,3.8-1.8,7.6-2.7,10.3-2.6,2,.2,4.2,0,6.6-.3,3.1-.5,6-1.2,8.1-2.3,3.7-1.6,9.1-2.7,15.6-2.7h0Z"/>
      <g>
        <path class="st17" d="M272.3,189.2l-2-3.6c2.2-1.5,3.7-4,3.7-6.9s0-.6,0-1c-.2-4.6-5.3-8.4-11.8-8.4s-6.4,1-8.6,2.6c0-.7-.1-1.3-.2-2,2.4-1.5,5.4-2.4,8.8-2.4,7.5,0,13.3,4.6,13.6,10.1,0,.3,0,.6,0,1,0,2.9-1.2,5.6-3.2,7.4l1.1,1.9-1.3,1.2ZM227.2,189.2l2-3.6c-2.2-1.5-3.7-4-3.7-6.9s0-.6,0-1c.2-4.6,5.3-8.4,11.8-8.4s6.4,1,8.6,2.6c0-.7.1-1.3.2-2-2.4-1.5-5.4-2.4-8.8-2.4-7.5,0-13.3,4.6-13.6,10.1,0,.3,0,.6,0,1,0,2.9,1.2,5.6,3.2,7.4l-1.1,1.9,1.3,1.2Z"/>
        <path class="st17" d="M277.7,180.1c0-3.6-2.1-6.8-5.4-8.9,2,1.8,3.2,4,3.4,6.6,0,.3,0,.6,0,1,0,2.9-1.2,5.6-3.2,7.4l1,2c2.6-2.1,4.1-4.9,4.1-8h0Z"/>
        <path class="st17" d="M203.4,191.7c-1.4-1.7-2.3-4-2.3-6.5,0-1.4.3-2.9.9-4.2,2.1-4.6,8.5-8,16.2-8s4.1.2,6,.7c-.4.5-.7,1-1,1.6-1.5-.3-3.2-.5-4.9-.5-7,0-12.9,3-14.6,7-.5,1.1-.7,2.2-.7,3.4,0,2.5,1.1,4.7,2.7,6.2l-2.6,4.5-1.4-1.2,1.8-3h0s0,0,0,0ZM249.8,166.8c1.7,0,3.2,1.2,3.5,2.9.2,1.5.4,3.1.4,4.9,0,.2,0,.4,0,.5,0,.2,0,.4,0,.6,0,3.7.5,7,1.2,9l-5.2,5.4-5.3-5.4c.7-2,1.2-5.3,1.2-9,0-.2,0-.4,0-.6s0-.4,0-.5c0-1.8.2-3.4.4-4.9.3-1.7,1.9-2.9,3.6-2.9h0Z"/>
      </g>
      <g>
        <path class="st46" d="M254.5,223.7v-8.1M252.6,223.7v-8.1"/>
        <path class="st18" d="M250.7,223.7v-8.1M248.9,223.7v-8.1M247.3,223.7v-8.1M244.2,223.2v-7.4M245.7,223.3v-7.7"/>
        <path class="st32" d="M241.4,222.9v-6.8M242.8,223.1v-7.2M237.6,222.5v-6M238.8,222.6v-6.3M240.1,222.8v-6.5"/>
        <path class="st62" d="M236.2,222.5v-5.8M235,222.6v-6.3M233.6,222.4v-5.9M230.9,221.9v-5M232.3,222.2v-5.5"/>
        <path class="st10" d="M229.5,221.8v-4.5M228.2,221.8v-4.3M226.8,221v-3.2M225.4,221v-3M223.8,220.6v-2.2"/>
        <path class="st46" d="M262.2,223.2v-7.4M258.9,223.5v-7.9M256.5,223.6v-8"/>
      </g>
      <g>
        <g>
          <path class="st0" d="M249.9,214.1c-11.9,0-22.5,1.6-30.1,4-.5.2-.8.7-.8,1.2,0,.6.3,1.1.8,1.3,7.6,2.5,18.2,4,30.1,4,11.9,0,22.5-1.6,30.1-4,.6-.2.8-.7.8-1.3,0-.6-.3-1.1-.8-1.2-7.6-2.5-18.2-4-30.1-4h0ZM249.8,216.2c10.7,0,20.5,1.3,27.8,3.4-7.4,2.1-17.1,3.4-27.8,3.4-10.7,0-20.4-1.4-27.8-3.4,7.4-2.1,17.1-3.4,27.8-3.4Z"/>
          <path class="st0" d="M249.8,214.1c-12,0-22.8,1.7-30.4,4.2.6-.3.6-1.2-.2-3.4-.9-2.7-2.4-2.6-2.4-2.6,8.4-2.7,20.1-4.4,33.1-4.4,13,0,24.8,1.7,33.2,4.4,0,0-1.5-.1-2.4,2.6-.8,2.2-.8,3.1-.2,3.4-7.6-2.6-18.6-4.2-30.6-4.2"/>
          <path class="st0" d="M249.8,208c-13,0-24.7,1.7-33.1,4.4-.6.2-1.2,0-1.3-.6-.2-.6.1-1.2.7-1.4,8.4-2.8,20.4-4.6,33.8-4.6,13.3,0,25.4,1.8,33.8,4.6.6.2.9.9.7,1.4-.2.6-.8.8-1.3.6-8.4-2.7-20.1-4.4-33.2-4.4"/>
        </g>
        <path class="st29" d="M240.6,211.2c0-.6.5-1.1,1.1-1.1s1.1.5,1.1,1.1-.5,1.1-1.1,1.1-1.1-.5-1.1-1.1"/>
        <path class="st45" d="M249.9,212.1h-3.2c-.6,0-1.1-.5-1.1-1.1s.5-1.1,1.1-1.1h6.4c.6,0,1.1.5,1.1,1.1s-.5,1.1-1.1,1.1h-3.2Z"/>
        <path class="st19" d="M233.9,213l-2.3.3c-.6,0-1.1-.4-1.2-.9,0-.6.3-1.2.9-1.2l2.3-.3,2.3-.3c.6,0,1.1.3,1.2.9,0,.6-.4,1.2-.9,1.2l-2.3.3Z"/>
        <path class="st29" d="M224.6,213.2c0-.6.5-1.1,1.1-1.1s1.1.5,1.1,1.1-.5,1.1-1.1,1.1-1.1-.5-1.1-1.1"/>
        <path class="st45" d="M217.7,214.9l1-1.4,3.3.4-2.6,2.1-1.4-.6-.4-.2.2-.4Z"/>
        <path class="st19" d="M265.9,213l2.3.3c.6,0,1.1-.4,1.2-.9,0-.6-.3-1.2-.9-1.2l-2.3-.3-2.3-.3c-.6,0-1.1.3-1.2.9,0,.6.4,1.2.9,1.2l2.3.3Z"/>
        <path class="st29" d="M257.1,211.2c0-.6.5-1.1,1.1-1.1s1.1.5,1.1,1.1-.5,1.1-1.1,1.1-1.1-.5-1.1-1.1M273.1,213.2c0-.6.5-1.1,1.1-1.1s1.1.5,1.1,1.1-.5,1.1-1.1,1.1-1.1-.5-1.1-1.1"/>
        <path class="st45" d="M282.3,215.2l-1.2-1.7-3.3.4,2.6,2.1,1.8-.6h.2c0,0-.1-.2-.1-.2Z"/>
      </g>
      <path class="st17" d="M249.8,168.5c.9,0,1.6.6,1.8,1.5.2,1.4.4,3,.4,4.6,0,.2,0,.3,0,.5s0,.4,0,.6c0,3.5.5,6.6,1.2,8.5l-3.4,3.5-3.4-3.5c.7-1.9,1.1-5,1.2-8.5,0-.2,0-.4,0-.6,0-.2,0-.3,0-.5,0-1.7.2-3.2.4-4.6.2-.9,1-1.5,1.9-1.5h0Z"/>
    </g>
    <path class="st86" d="M247.9,185.4c0-1,.8-1.9,1.8-1.9s1.8.8,1.8,1.9-.8,1.9-1.8,1.9-1.8-.9-1.8-1.9"/>
    <g>
      <path class="st15" d="M247.9,185.4c0-1,.8-1.9,1.8-1.9s1.8.8,1.8,1.9-.8,1.9-1.8,1.9-1.8-.9-1.8-1.9Z"/>
      <g>
        <path class="st29" d="M247.9,181.7c0-1,.8-1.9,1.8-1.9s1.8.9,1.8,1.9-.8,1.9-1.8,1.9-1.8-.9-1.8-1.9M248.3,177.7c0-.8.7-1.5,1.5-1.5s1.5.7,1.5,1.5-.7,1.5-1.5,1.5-1.5-.7-1.5-1.5M248.7,174c0-.6.5-1.1,1.1-1.1s1.1.5,1.1,1.1-.5,1.1-1.1,1.1-1.1-.5-1.1-1.1M248.9,170.9c0-.5.4-.9.9-.9s.8.4.8.9-.4.9-.8.9-.9-.4-.9-.9"/>
        <path class="st0" d="M249.9,196.9l1.2.2c-.2.5-.2,1.1-.2,1.7,0,2.7,2.1,4.9,4.8,4.9s3.9-1.4,4.5-3.4c0,0,.5-1.8.7-1.8.2,0,.1,1.9.2,1.9.3,2.5,2.4,4.2,4.7,4.2s4.8-2.2,4.8-4.9,0-.4,0-.6l1.5-1.6.8,2.1c-.3.6-.4,1.4-.4,2.1,0,2.6,2,4.7,4.5,4.7s3-.8,3.8-2.1l1-1.3v1.6c0,1.6.6,3.1,2.1,3.4,0,0,1.7.1,3.9-1.8,2.2-1.9,3.4-3.5,3.4-3.5l.2,1.9s-1.8,3.1-3.9,4.4c-1.1.7-2.8,1.4-4.1,1.2-1.4-.2-2.4-1.5-2.9-2.9-1,.6-2.2,1-3.4,1-2.7,0-5.2-1.6-6.1-4.1-1.2,1.5-3,2.4-5,2.4s-4.2-1.1-5.4-2.7c-1.2,1.2-2.9,2-4.7,2s-4.5-1.3-5.8-3.2c-1.2,1.9-3.4,3.2-5.8,3.2s-3.5-.7-4.7-2c-1.2,1.6-3.2,2.7-5.4,2.7s-3.8-.9-5-2.4c-1,2.4-3.4,4.1-6.1,4.1s-2.4-.4-3.4-1c-.5,1.4-1.5,2.6-2.9,2.9-1.3.2-3-.5-4.1-1.2-2-1.3-3.9-4.4-3.9-4.4l.2-1.9s1.2,1.6,3.4,3.5c2.2,1.9,3.9,1.8,3.9,1.8,1.5-.3,2.1-1.7,2.1-3.4v-1.6s.9,1.3.9,1.3c.8,1.3,2.2,2.1,3.8,2.1,2.5,0,4.5-2.1,4.5-4.7s-.1-1.5-.4-2.1l.8-2.1,1.5,1.6c0,.2,0,.4,0,.6,0,2.7,2.1,4.9,4.8,4.9s4.4-1.7,4.7-4.2c0,0,0-1.8.2-1.9.2,0,.6,1.8.7,1.8.6,2,2.4,3.4,4.5,3.4s4.8-2.2,4.8-4.9,0-1.2-.2-1.7l1.2-.2"/>
        <path class="st29" d="M282.6,203.3c.3-.9,0-1.8-.6-1.9-.6-.2-1.3.4-1.6,1.2-.3.9,0,1.7.6,1.9.6.2,1.3-.4,1.6-1.2M261.9,199c.1-.9-.3-1.7-.9-1.8-.6,0-1.2.6-1.3,1.5-.1.9.3,1.7.9,1.8.6,0,1.2-.6,1.3-1.5M237.9,199c-.1-.9.3-1.7.9-1.8.6,0,1.2.6,1.3,1.5.1.9-.3,1.7-.9,1.8-.6,0-1.2-.6-1.3-1.5M217.2,203.3c-.3-.9,0-1.8.6-1.9.6-.2,1.3.4,1.6,1.2.3.9,0,1.7-.6,1.9-.6.2-1.3-.4-1.6-1.2"/>
        <g>
          <path class="st0" d="M226.6,199.1c-.3-.3-.6-.7-.7-1.1,0-.5,0-.9.2-1.3,0,0-.9-.5-1.8-.7-.7-.2-1.9-.2-2.3-.2-.4,0-1.1,0-1.1,0,0,0,0,.2.3.6.3.5.5.8.5.8-1.2.3-2.3,1.2-2.9,2.2,1,.7,2.2,1.2,3.5,1,0,0-.1.4-.2.9,0,.5,0,.6,0,.6,0,0,.7-.3,1-.4.3-.1,1.5-.6,2.1-1,.8-.6,1.4-1.3,1.4-1.3M229.3,198.6c.2-.4.3-.8.2-1.3,0-.5-.3-.9-.6-1.1,0,0,.6-.7,1.4-1.3.6-.4,1.7-.9,2.1-1,.3-.1,1-.4,1-.4,0,0,0,.2,0,.6,0,.5-.2.9-.2.9,1.3-.1,2.5.3,3.5,1-.7,1-1.7,1.9-2.9,2.2,0,0,.2.3.5.8.2.4.3.6.3.6,0,0-.7,0-1.1,0-.4,0-1.6,0-2.3-.2-.9-.3-1.8-.7-1.8-.7"/>
          <path class="st0" d="M228.4,191.5s.1-.3.7-.6c.6-.3,1.1-.3,1.1-.3,0,0-.2,1-.2,1.4,0,.4,0,1.5-.3,2.4-.2,1-.6,1.8-.6,1.8-.4-.4-1-.5-1.5-.4-.6.1-1,.5-1.3.9,0,0-.6-.6-1.2-1.5-.5-.9-.9-1.9-1.1-2.2-.2-.3-.7-1.2-.7-1.2,0,0,.5-.2,1.1,0,.7.1.9.3.9.3-.1-1.4.3-2.8,1-3.8,1,.7,1.9,1.9,2.2,3.2h0Z"/>
        </g>
        <path class="st45" d="M225.7,197.6c0-1.2.9-2.2,2.1-2.2s2.1,1,2.1,2.2-.9,2.2-2.1,2.2-2.1-1-2.1-2.2"/>
        <g>
          <path class="st0" d="M251.7,188.8s.2-.3.9-.6c.7-.3,1.2-.2,1.2-.2,0,0-.4,1.1-.5,1.5-.2.4-.4,1.6-.8,2.7-.4,1.1-1,1.9-1,1.9-.4-.5-1-.8-1.6-.8s-1.2.3-1.6.8c0,0-.6-.8-1-1.9-.4-1.1-.6-2.3-.8-2.7-.2-.4-.5-1.5-.5-1.5,0,0,.5-.1,1.2.2.7.3.9.6.9.6,0-1.5.8-3,1.8-4,1,1,1.8,2.5,1.9,4Z"/>
          <path class="st0" d="M248.3,196.9c-.3-.4-.5-.9-.5-1.4s.2-1,.5-1.4c0,0-.9-.7-1.8-1.2-.7-.4-2.1-.6-2.5-.7-.4,0-1.2-.3-1.2-.3,0,0,0,.2.2.7.2.6.4,1,.4,1-1.4,0-2.8.9-3.7,1.9.9,1,2.3,1.7,3.7,1.8,0,0-.2.4-.4,1-.2.5-.2.7-.2.7,0,0,.8-.2,1.2-.2.4,0,1.8-.3,2.5-.7,1-.5,1.9-1.2,1.9-1.2M251.4,196.9c.3-.4.5-.9.5-1.4s-.2-1-.5-1.4c0,0,.9-.7,1.8-1.2.7-.4,2.1-.6,2.5-.7.4,0,1.2-.3,1.2-.3,0,0,0,.2-.2.7-.2.6-.4,1-.4,1,1.4,0,2.8.9,3.7,1.9-.9,1-2.3,1.7-3.7,1.8,0,0,.2.4.4,1,.2.5.2.7.2.7,0,0-.8-.2-1.2-.2-.4,0-1.8-.3-2.5-.7-1-.5-1.9-1.2-1.9-1.2M271.4,191.5s-.1-.3-.7-.6c-.6-.3-1.1-.3-1.1-.3,0,0,.2,1,.2,1.4,0,.4,0,1.5.3,2.4.2,1,.6,1.8.6,1.8.4-.4,1-.5,1.5-.4.6.1,1,.5,1.3.9,0,0,.6-.6,1.2-1.5.5-.9.9-1.9,1.1-2.2.2-.3.7-1.2.7-1.2,0,0-.5-.2-1.1,0-.7.1-.9.3-.9.3.1-1.4-.3-2.8-1-3.8-1,.7-1.9,1.9-2.2,3.2h0Z"/>
          <path class="st0" d="M273.2,199.1c.3-.3.6-.7.6-1.1,0-.4,0-.9-.2-1.3,0,0,.9-.5,1.8-.7.7-.2,1.9-.2,2.3-.2.4,0,1.1,0,1.1,0,0,0,0,.2-.3.6-.3.5-.5.8-.5.8,1.2.3,2.3,1.2,2.9,2.2-1,.7-2.2,1.2-3.5,1,0,0,.1.4.2.9,0,.5,0,.6,0,.6,0,0-.7-.3-1-.4-.3-.1-1.5-.6-2.1-1-.8-.6-1.4-1.3-1.4-1.3M270.4,198.6c-.2-.4-.3-.8-.2-1.3,0-.5.3-.9.6-1.1,0,0-.6-.7-1.4-1.3-.6-.4-1.7-.9-2.1-1-.3-.1-1-.4-1-.4,0,0,0,.2,0,.6,0,.5.2.9.2.9-1.3-.1-2.5.3-3.5,1,.7,1,1.7,1.9,2.9,2.2,0,0-.2.3-.5.8-.2.4-.3.6-.3.6,0,0,.7,0,1.1,0,.4,0,1.6,0,2.3-.2.9-.3,1.8-.7,1.8-.7"/>
        </g>
        <path class="st45" d="M269.9,197.6c0-1.2.9-2.2,2.1-2.2s2.1,1,2.1,2.2-.9,2.2-2.1,2.2-2.1-1-2.1-2.2M293.4,202.4c-.5-.6-1.5-.4-2.3.3-.8.7-1,1.8-.5,2.3.5.6,1.5.4,2.3-.3.8-.7,1-1.8.5-2.3"/>
        <path class="st0" d="M290.4,203.8c.1-.4.3-.8.7-1.1.8-.7,1.8-.8,2.3-.3,0,0,.1.2.2.3,0,0,1.1-2.2,2.3-2.9,1.3-.7,3.4-.6,3.4-.6,0-1.7-1.3-3.1-2.9-3.1s-1.9.4-2.4,1.2l-.2-1.1s-1.3.3-1.9,1.9c-.6,1.6,0,4,0,4,0,0-.3-1-.8-1.7-.5-.7-1.8-1.4-2.4-1.8-.7-.3-1.3-.8-1.3-.8,0,0,0,.2,0,.6,0,.5,0,.9,0,.9-1.2-.2-2.6,0-3.7.5.5,1,1.4,2,2.5,2.4,0,0-.4.4-.8.8-.3.4-.4.5-.4.5,0,0,.8.1,1.2.2.4,0,1.8.3,2.6.2.6,0,1.3-.1,1.7-.2M209.4,203.8c-.1-.4-.3-.8-.7-1.1-.8-.7-1.8-.8-2.3-.3,0,0-.1.2-.2.3,0,0-1.1-2.2-2.3-2.9-1.3-.7-3.4-.6-3.4-.6,0-1.7,1.3-3.1,2.9-3.1s1.9.4,2.4,1.2l.2-1.1s1.3.3,1.9,1.9c.6,1.6,0,4,0,4,0,0,.3-1,.8-1.7.5-.7,1.8-1.4,2.4-1.8.7-.3,1.3-.8,1.3-.8,0,0,0,.2,0,.6,0,.5,0,.9,0,.9,1.2-.2,2.6,0,3.7.5-.5,1-1.4,2-2.5,2.4,0,0,.4.4.8.8.3.4.4.5.4.5,0,0-.8.1-1.2.2-.4,0-1.8.3-2.6.2-.6,0-1.3-.1-1.7-.2"/>
        <path class="st45" d="M206.4,202.4c.5-.6,1.5-.4,2.3.3.8.7,1,1.8.5,2.3-.5.6-1.5.4-2.3-.3-.8-.7-1-1.8-.5-2.3M247.8,195.5c0-1.2.9-2.2,2.1-2.2s2.1,1,2.1,2.2-.9,2.2-2.1,2.2-2.1-1-2.1-2.2"/>
      </g>
      <g>
        <path class="st38" d="M245.5,162.6c0-2.5,1.9-4.4,4.3-4.4s4.3,2,4.3,4.4-1.9,4.4-4.3,4.4-4.3-2-4.3-4.4"/>
        <path class="st43" d="M248.7,150.1v2.4h-2.3v2.4h2.3v7h-3c0,.2-.2.4-.2.6,0,.6.1,1.2.3,1.7,0,0,0,0,0,0h7.9s0,0,0,0c.2-.5.3-1.1.3-1.7,0-.2-.2-.4-.2-.6h-2.9v-7h2.3v-2.4h-2.3v-2.4h-2.3Z"/>
      </g>
    </g>
    <path class="st86" d="M298.2,195.7c0-.6.5-1.1,1.1-1.1s1.1.5,1.1,1.1-.5,1.1-1.1,1.1-1.1-.5-1.1-1.1"/>
    <path class="st66" d="M298.2,195.7c0-.6.5-1.1,1.1-1.1s1.1.5,1.1,1.1-.5,1.1-1.1,1.1-1.1-.5-1.1-1.1Z"/>
    <path class="st86" d="M299.6,192.9c0-.6.5-1.1,1.1-1.1s1.1.5,1.1,1.1-.5,1.1-1.1,1.1-1.1-.5-1.1-1.1"/>
    <path class="st66" d="M299.6,192.9c0-.6.5-1.1,1.1-1.1s1.1.5,1.1,1.1-.5,1.1-1.1,1.1-1.1-.5-1.1-1.1Z"/>
    <path class="st86" d="M300.6,189.6c0-.6.5-1.1,1.1-1.1s1.1.5,1.1,1.1-.5,1.1-1.1,1.1-1.1-.5-1.1-1.1"/>
    <path class="st66" d="M300.6,189.6c0-.6.5-1.1,1.1-1.1s1.1.5,1.1,1.1-.5,1.1-1.1,1.1-1.1-.5-1.1-1.1h0Z"/>
    <path class="st86" d="M300.7,186.2c0-.6.5-1.1,1.1-1.1s1.1.5,1.1,1.1-.5,1.1-1.1,1.1-1.1-.5-1.1-1.1"/>
    <path class="st66" d="M300.7,186.2c0-.6.5-1.1,1.1-1.1s1.1.5,1.1,1.1-.5,1.1-1.1,1.1-1.1-.5-1.1-1.1Z"/>
    <path class="st86" d="M299.9,182.7c0-.6.5-1.1,1.1-1.1s1.1.5,1.1,1.1-.5,1.1-1.1,1.1-1.1-.5-1.1-1.1"/>
    <path class="st66" d="M299.9,182.7c0-.6.5-1.1,1.1-1.1s1.1.5,1.1,1.1-.5,1.1-1.1,1.1-1.1-.5-1.1-1.1Z"/>
    <path class="st86" d="M298.3,179.6c0-.6.5-1.1,1.1-1.1s1.1.5,1.1,1.1-.5,1.1-1.1,1.1-1.1-.5-1.1-1.1"/>
    <path class="st66" d="M298.3,179.6c0-.6.5-1.1,1.1-1.1s1.1.5,1.1,1.1-.5,1.1-1.1,1.1-1.1-.5-1.1-1.1h0Z"/>
    <path class="st86" d="M296.1,177.1c0-.6.5-1.1,1.1-1.1s1.1.5,1.1,1.1-.5,1.1-1.1,1.1-1.1-.5-1.1-1.1"/>
    <path class="st66" d="M296.1,177.1c0-.6.5-1.1,1.1-1.1s1.1.5,1.1,1.1-.5,1.1-1.1,1.1-1.1-.5-1.1-1.1h0Z"/>
    <path class="st86" d="M293.6,174.9c0-.6.5-1.1,1.1-1.1s1.1.5,1.1,1.1-.5,1.1-1.1,1.1-1.1-.5-1.1-1.1"/>
    <path class="st66" d="M293.6,174.9c0-.6.5-1.1,1.1-1.1s1.1.5,1.1,1.1-.5,1.1-1.1,1.1-1.1-.5-1.1-1.1h0Z"/>
    <path class="st86" d="M290.6,173.2c0-.6.5-1.1,1.1-1.1s1.1.5,1.1,1.1-.5,1.1-1.1,1.1-1.1-.5-1.1-1.1"/>
    <path class="st66" d="M290.6,173.2c0-.6.5-1.1,1.1-1.1s1.1.5,1.1,1.1-.5,1.1-1.1,1.1-1.1-.5-1.1-1.1Z"/>
    <path class="st86" d="M287.4,172c0-.6.5-1.1,1.1-1.1s1.1.5,1.1,1.1-.5,1.1-1.1,1.1-1.1-.5-1.1-1.1"/>
    <path class="st44" d="M296.1,191.7c1.4-1.7,2.3-4,2.3-6.5,0-1.4-.3-2.9-.9-4.2-2.1-4.6-8.5-8-16.2-8s-4.1.2-6,.7c.4.5.7,1,1,1.6,1.5-.3,3.2-.5,4.9-.5,7,0,12.9,3,14.6,7,.5,1.1.7,2.2.7,3.4,0,2.5-1.1,4.7-2.7,6.2l2.6,4.5,1.4-1.2-1.8-3h0s0,0,0,0Z"/>
    <path class="st66" d="M287.4,172c0-.6.5-1.1,1.1-1.1s1.1.5,1.1,1.1-.5,1.1-1.1,1.1-1.1-.5-1.1-1.1Z"/>
    <path class="st86" d="M283.9,171.3c0-.6.5-1.1,1.1-1.1s1.1.5,1.1,1.1-.5,1.1-1.1,1.1-1.1-.5-1.1-1.1"/>
    <path class="st66" d="M283.9,171.3c0-.6.5-1.1,1.1-1.1s1.1.5,1.1,1.1-.5,1.1-1.1,1.1-1.1-.5-1.1-1.1Z"/>
    <path class="st86" d="M280.6,171.1c0-.6.5-1.1,1.1-1.1s1.1.5,1.1,1.1-.5,1.1-1.1,1.1-1.1-.5-1.1-1.1"/>
    <path class="st66" d="M280.6,171.1c0-.6.5-1.1,1.1-1.1s1.1.5,1.1,1.1-.5,1.1-1.1,1.1-1.1-.5-1.1-1.1h0Z"/>
    <path class="st86" d="M277.3,171.2c0-.6.5-1.1,1.1-1.1s1.1.5,1.1,1.1-.5,1.1-1.1,1.1-1.1-.5-1.1-1.1"/>
    <path class="st66" d="M277.3,171.2c0-.6.5-1.1,1.1-1.1s1.1.5,1.1,1.1-.5,1.1-1.1,1.1-1.1-.5-1.1-1.1Z"/>
    <path class="st86" d="M274,171.2c0-.6.5-1.1,1.1-1.1s1.1.5,1.1,1.1-.5,1.1-1.1,1.1-1.1-.5-1.1-1.1"/>
    <g>
      <path class="st15" d="M274,171.2c0-.6.5-1.1,1.1-1.1s1.1.5,1.1,1.1-.5,1.1-1.1,1.1-1.1-.5-1.1-1.1Z"/>
      <path class="st29" d="M275.7,174.3c0-.6.5-1.1,1.1-1.1s1.1.5,1.1,1.1-.5,1.1-1.1,1.1-1.1-.5-1.1-1.1M276.3,177.6c0-.6.5-1.1,1.1-1.1s1.1.5,1.1,1.1-.5,1.1-1.1,1.1-1.1-.5-1.1-1.1M276.5,181c0-.6.5-1.1,1.1-1.1s1.1.5,1.1,1.1-.5,1.1-1.1,1.1-1.1-.5-1.1-1.1M275.5,184.1c0-.6.5-1.1,1.1-1.1s1.1.5,1.1,1.1-.5,1.1-1.1,1.1-1.1-.5-1.1-1.1M273.7,186.9c0-.6.5-1.1,1.1-1.1s1.1.5,1.1,1.1-.5,1.1-1.1,1.1-1.1-.5-1.1-1.1"/>
    </g>
    <path class="st86" d="M271.6,169.1c0-.6.5-1.1,1.1-1.1s1.1.5,1.1,1.1-.5,1.1-1.1,1.1-1.1-.5-1.1-1.1"/>
    <path class="st66" d="M271.6,169.1c0-.6.5-1.1,1.1-1.1s1.1.5,1.1,1.1-.5,1.1-1.1,1.1-1.1-.5-1.1-1.1Z"/>
    <path class="st86" d="M268.7,167.3c0-.6.5-1.1,1.1-1.1s1.1.5,1.1,1.1-.5,1.1-1.1,1.1-1.1-.5-1.1-1.1"/>
    <path class="st66" d="M268.7,167.3c0-.6.5-1.1,1.1-1.1s1.1.5,1.1,1.1-.5,1.1-1.1,1.1-1.1-.5-1.1-1.1Z"/>
    <path class="st86" d="M265.5,166.3c0-.6.5-1.1,1.1-1.1s1.1.5,1.1,1.1-.5,1.1-1.1,1.1-1.1-.5-1.1-1.1"/>
    <path class="st66" d="M265.5,166.3c0-.6.5-1.1,1.1-1.1s1.1.5,1.1,1.1-.5,1.1-1.1,1.1-1.1-.5-1.1-1.1h0Z"/>
    <path class="st86" d="M262.1,165.7c0-.6.5-1.1,1.1-1.1s1.1.5,1.1,1.1-.5,1.1-1.1,1.1-1.1-.5-1.1-1.1"/>
    <path class="st66" d="M262.1,165.7c0-.6.5-1.1,1.1-1.1s1.1.5,1.1,1.1-.5,1.1-1.1,1.1-1.1-.5-1.1-1.1Z"/>
    <path class="st86" d="M258.9,165.7c0-.6.5-1.1,1.1-1.1s1.1.5,1.1,1.1-.5,1.1-1.1,1.1-1.1-.5-1.1-1.1"/>
    <path class="st66" d="M258.9,165.7c0-.6.5-1.1,1.1-1.1s1.1.5,1.1,1.1-.5,1.1-1.1,1.1-1.1-.5-1.1-1.1h0Z"/>
    <path class="st86" d="M255.5,166.3c0-.6.5-1.1,1.1-1.1s1.1.5,1.1,1.1-.5,1.1-1.1,1.1-1.1-.5-1.1-1.1"/>
    <path class="st66" d="M255.5,166.3c0-.6.5-1.1,1.1-1.1s1.1.5,1.1,1.1-.5,1.1-1.1,1.1-1.1-.5-1.1-1.1Z"/>
    <path class="st86" d="M252.3,167.5c0-.6.5-1.1,1.1-1.1s1.1.5,1.1,1.1-.5,1.1-1.1,1.1-1.1-.5-1.1-1.1"/>
    <path class="st66" d="M252.3,167.5c0-.6.5-1.1,1.1-1.1s1.1.5,1.1,1.1-.5,1.1-1.1,1.1-1.1-.5-1.1-1.1Z"/>
    <path class="st86" d="M199.2,195.7c0-.6.5-1.1,1.1-1.1s1.1.5,1.1,1.1-.5,1.1-1.1,1.1-1.1-.5-1.1-1.1"/>
    <path class="st66" d="M199.2,195.7c0-.6.5-1.1,1.1-1.1s1.1.5,1.1,1.1-.5,1.1-1.1,1.1-1.1-.5-1.1-1.1Z"/>
    <path class="st86" d="M197.7,192.9c0-.6.5-1.1,1.1-1.1s1.1.5,1.1,1.1-.5,1.1-1.1,1.1-1.1-.5-1.1-1.1"/>
    <path class="st66" d="M197.7,192.9c0-.6.5-1.1,1.1-1.1s1.1.5,1.1,1.1-.5,1.1-1.1,1.1-1.1-.5-1.1-1.1h0Z"/>
    <path class="st86" d="M196.8,189.6c0-.6.5-1.1,1.1-1.1s1.1.5,1.1,1.1-.5,1.1-1.1,1.1-1.1-.5-1.1-1.1"/>
    <path class="st66" d="M196.8,189.6c0-.6.5-1.1,1.1-1.1s1.1.5,1.1,1.1-.5,1.1-1.1,1.1-1.1-.5-1.1-1.1Z"/>
    <path class="st86" d="M196.6,186.2c0-.6.5-1.1,1.1-1.1s1.1.5,1.1,1.1-.5,1.1-1.1,1.1-1.1-.5-1.1-1.1"/>
    <path class="st66" d="M196.6,186.2c0-.6.5-1.1,1.1-1.1s1.1.5,1.1,1.1-.5,1.1-1.1,1.1-1.1-.5-1.1-1.1Z"/>
    <path class="st86" d="M197.4,182.7c0-.6.5-1.1,1.1-1.1s1.1.5,1.1,1.1-.5,1.1-1.1,1.1-1.1-.5-1.1-1.1"/>
    <path class="st66" d="M197.4,182.7c0-.6.5-1.1,1.1-1.1s1.1.5,1.1,1.1-.5,1.1-1.1,1.1-1.1-.5-1.1-1.1h0Z"/>
    <path class="st86" d="M199.1,179.6c0-.6.5-1.1,1.1-1.1s1.1.5,1.1,1.1-.5,1.1-1.1,1.1-1.1-.5-1.1-1.1"/>
    <path class="st66" d="M199.1,179.6c0-.6.5-1.1,1.1-1.1s1.1.5,1.1,1.1-.5,1.1-1.1,1.1-1.1-.5-1.1-1.1h0Z"/>
    <path class="st86" d="M201.2,177.1c0-.6.5-1.1,1.1-1.1s1.1.5,1.1,1.1-.5,1.1-1.1,1.1-1.1-.5-1.1-1.1"/>
    <path class="st66" d="M201.2,177.1c0-.6.5-1.1,1.1-1.1s1.1.5,1.1,1.1-.5,1.1-1.1,1.1-1.1-.5-1.1-1.1Z"/>
    <path class="st86" d="M203.8,174.9c0-.6.5-1.1,1.1-1.1s1.1.5,1.1,1.1-.5,1.1-1.1,1.1-1.1-.5-1.1-1.1"/>
    <path class="st66" d="M203.8,174.9c0-.6.5-1.1,1.1-1.1s1.1.5,1.1,1.1-.5,1.1-1.1,1.1-1.1-.5-1.1-1.1h0Z"/>
    <path class="st86" d="M206.8,173.2c0-.6.5-1.1,1.1-1.1s1.1.5,1.1,1.1-.5,1.1-1.1,1.1-1.1-.5-1.1-1.1"/>
    <path class="st66" d="M206.8,173.2c0-.6.5-1.1,1.1-1.1s1.1.5,1.1,1.1-.5,1.1-1.1,1.1-1.1-.5-1.1-1.1Z"/>
    <path class="st86" d="M209.9,172c0-.6.5-1.1,1.1-1.1s1.1.5,1.1,1.1-.5,1.1-1.1,1.1-1.1-.5-1.1-1.1"/>
    <path class="st66" d="M209.9,172c0-.6.5-1.1,1.1-1.1s1.1.5,1.1,1.1-.5,1.1-1.1,1.1-1.1-.5-1.1-1.1Z"/>
    <path class="st86" d="M213.4,171.3c0-.6.5-1.1,1.1-1.1s1.1.5,1.1,1.1-.5,1.1-1.1,1.1-1.1-.5-1.1-1.1"/>
    <path class="st66" d="M213.4,171.3c0-.6.5-1.1,1.1-1.1s1.1.5,1.1,1.1-.5,1.1-1.1,1.1-1.1-.5-1.1-1.1Z"/>
    <path class="st86" d="M216.8,171.1c0-.6.5-1.1,1.1-1.1s1.1.5,1.1,1.1-.5,1.1-1.1,1.1-1.1-.5-1.1-1.1"/>
    <path class="st66" d="M216.8,171.1c0-.6.5-1.1,1.1-1.1s1.1.5,1.1,1.1-.5,1.1-1.1,1.1-1.1-.5-1.1-1.1Z"/>
    <path class="st86" d="M220,171.2c0-.6.5-1.1,1.1-1.1s1.1.5,1.1,1.1-.5,1.1-1.1,1.1-1.1-.5-1.1-1.1"/>
    <path class="st66" d="M220,171.2c0-.6.5-1.1,1.1-1.1s1.1.5,1.1,1.1-.5,1.1-1.1,1.1-1.1-.5-1.1-1.1Z"/>
    <path class="st86" d="M223.3,171.2c0-.6.5-1.1,1.1-1.1s1.1.5,1.1,1.1-.5,1.1-1.1,1.1-1.1-.5-1.1-1.1"/>
    <g>
      <path class="st15" d="M223.3,171.2c0-.6.5-1.1,1.1-1.1s1.1.5,1.1,1.1-.5,1.1-1.1,1.1-1.1-.5-1.1-1.1h0Z"/>
      <path class="st17" d="M225.9,188.1c-2.6-2.1-4.1-4.9-4.1-8s2.1-6.8,5.4-8.9c-2,1.8-3.2,4-3.4,6.6,0,.3,0,.6,0,1,0,2.9,1.2,5.6,3.2,7.4l-1,2"/>
      <path class="st29" d="M221.7,174.3c0-.6.5-1.1,1.1-1.1s1.1.5,1.1,1.1-.5,1.1-1.1,1.1-1.1-.5-1.1-1.1M221,177.6c0-.6.5-1.1,1.1-1.1s1.1.5,1.1,1.1-.5,1.1-1.1,1.1-1.1-.5-1.1-1.1M220.9,181c0-.6.5-1.1,1.1-1.1s1.1.5,1.1,1.1-.5,1.1-1.1,1.1-1.1-.5-1.1-1.1M221.9,184.1c0-.6.5-1.1,1.1-1.1s1.1.5,1.1,1.1-.5,1.1-1.1,1.1-1.1-.5-1.1-1.1M223.7,186.9c0-.6.5-1.1,1.1-1.1s1.1.5,1.1,1.1-.5,1.1-1.1,1.1-1.1-.5-1.1-1.1"/>
    </g>
    <path class="st86" d="M225.8,169.1c0-.6.5-1.1,1.1-1.1s1.1.5,1.1,1.1-.5,1.1-1.1,1.1-1.1-.5-1.1-1.1"/>
    <path class="st66" d="M225.8,169.1c0-.6.5-1.1,1.1-1.1s1.1.5,1.1,1.1-.5,1.1-1.1,1.1-1.1-.5-1.1-1.1Z"/>
    <path class="st86" d="M228.7,167.3c0-.6.5-1.1,1.1-1.1s1.1.5,1.1,1.1-.5,1.1-1.1,1.1-1.1-.5-1.1-1.1"/>
    <path class="st66" d="M228.7,167.3c0-.6.5-1.1,1.1-1.1s1.1.5,1.1,1.1-.5,1.1-1.1,1.1-1.1-.5-1.1-1.1Z"/>
    <path class="st86" d="M231.9,166.3c0-.6.5-1.1,1.1-1.1s1.1.5,1.1,1.1-.5,1.1-1.1,1.1-1.1-.5-1.1-1.1"/>
    <path class="st66" d="M231.9,166.3c0-.6.5-1.1,1.1-1.1s1.1.5,1.1,1.1-.5,1.1-1.1,1.1-1.1-.5-1.1-1.1Z"/>
    <path class="st86" d="M235.2,165.7c0-.6.5-1.1,1.1-1.1s1.1.5,1.1,1.1-.5,1.1-1.1,1.1-1.1-.5-1.1-1.1"/>
    <path class="st66" d="M235.2,165.7c0-.6.5-1.1,1.1-1.1s1.1.5,1.1,1.1-.5,1.1-1.1,1.1-1.1-.5-1.1-1.1Z"/>
    <path class="st86" d="M238.5,165.7c0-.6.5-1.1,1.1-1.1s1.1.5,1.1,1.1-.5,1.1-1.1,1.1-1.1-.5-1.1-1.1"/>
    <path class="st66" d="M238.5,165.7c0-.6.5-1.1,1.1-1.1s1.1.5,1.1,1.1-.5,1.1-1.1,1.1-1.1-.5-1.1-1.1Z"/>
    <path class="st86" d="M241.9,166.3c0-.6.5-1.1,1.1-1.1s1.1.5,1.1,1.1-.5,1.1-1.1,1.1-1.1-.5-1.1-1.1"/>
    <path class="st66" d="M241.9,166.3c0-.6.5-1.1,1.1-1.1s1.1.5,1.1,1.1-.5,1.1-1.1,1.1-1.1-.5-1.1-1.1Z"/>
    <path class="st86" d="M245,167.5c0-.6.5-1.1,1.1-1.1s1.1.5,1.1,1.1-.5,1.1-1.1,1.1-1.1-.5-1.1-1.1"/>
    <g>
      <path class="st15" d="M245,167.5c0-.6.5-1.1,1.1-1.1s1.1.5,1.1,1.1-.5,1.1-1.1,1.1-1.1-.5-1.1-1.1Z"/>
      <path class="st17" d="M206,176.5c-1.9,1.3-3.3,2.8-4,4.6-.6,1.3-.9,2.7-.9,4.2,0,2.5.9,4.7,2.3,6.5l-1.5,2.7c-1.5-2.1-2.3-4.5-2.3-7.1,0-4.4,2.6-8.3,6.5-10.9h0ZM293.5,176.5c1.9,1.3,3.3,2.8,4,4.6.6,1.3.9,2.7.9,4.2,0,2.5-.9,4.7-2.3,6.5l1.5,2.7c1.5-2.1,2.3-4.5,2.3-7.1,0-4.4-2.6-8.3-6.5-10.9Z"/>
    </g>
    <path class="st82" d="M322.3,218.6s-.7.8-1.2.9c-.5.1-1.2-.5-1.2-.5,0,0-.5.5-1,.7-.6.1-1.4-.7-1.4-.7,0,0-.5.8-1,1-.5.2-1.1-.3-1.1-.3,0,0-.2.4-.6.7-.2,0-.5,0-.5,0l-.6-.4-.7-.8-.6-.3s-.3-1-.3-1.1c0-.2,0-.6,0-.6-.1-.7.8-1.5,2.2-1.8.8-.2,1.5-.2,2,0,.6-.5,1.7-.9,3.1-.9s2.3.3,2.9.7c.6-.4,1.7-.7,2.9-.7s2.5.4,3.1.9c.5-.2,1.2-.2,2,0,1.4.3,2.4,1.1,2.2,1.8,0,0,0,.4,0,.6,0,.2-.3,1.1-.3,1.1l-.6.3-.7.8-.6.4s-.3.2-.5,0c-.4-.2-.6-.7-.6-.7,0,0-.6.5-1.1.3-.5-.2-1-1-1-1,0,0-.8.8-1.4.7-.6-.1-1-.7-1-.7,0,0-.7.6-1.2.5-.5-.1-1.2-.9-1.2-.9"/>
    <g>
      <path class="st4" d="M322.3,218.6s-.7.8-1.2.9c-.5.1-1.2-.5-1.2-.5,0,0-.5.5-1,.7-.6.1-1.4-.7-1.4-.7,0,0-.5.8-1,1-.5.2-1.1-.3-1.1-.3,0,0-.2.4-.6.7-.2,0-.5,0-.5,0l-.6-.4-.7-.8-.6-.3s-.3-1-.3-1.1c0-.2,0-.6,0-.6-.1-.7.8-1.5,2.2-1.8.8-.2,1.5-.2,2,0,.6-.5,1.7-.9,3.1-.9s2.3.3,2.9.7c.6-.4,1.7-.7,2.9-.7s2.5.4,3.1.9c.5-.2,1.2-.2,2,0,1.4.3,2.4,1.1,2.2,1.8,0,0,0,.4,0,.6,0,.2-.3,1.1-.3,1.1l-.6.3-.7.8-.6.4s-.3.2-.5,0c-.4-.2-.6-.7-.6-.7,0,0-.6.5-1.1.3-.5-.2-1-1-1-1,0,0-.8.8-1.4.7-.6-.1-1-.7-1-.7,0,0-.7.6-1.2.5-.5-.1-1.2-.9-1.2-.9h0,0Z"/>
      <g>
        <path class="st27" d="M321,214.2c0-1.1.6-2.1,1.3-2.1s1.3.9,1.3,2.1-.6,2.1-1.3,2.1-1.3-.9-1.3-2.1Z"/>
        <path class="st27" d="M321.7,214.2c0-1,.3-1.9.6-1.9s.6.9.6,1.9-.3,1.9-.6,1.9-.6-.9-.6-1.9Z"/>
      </g>
    </g>
    <g>
      <path class="st75" d="M315.5,222.7c-.2-.6-.6-1.1-.6-1.1,1.9-.6,4.5-1,7.4-1,2.9,0,5.6.4,7.5,1,0,0-.2.4-.5,1-.2.3-.4.9-.4.9-1.7-.6-3.9-.9-6.6-.9-2.7,0-5.3.4-6.6.9,0,0,0-.3-.2-.7h0"/>
      <path class="st59" d="M315.5,222.7c-.2-.6-.6-1.1-.6-1.1,1.9-.6,4.5-1,7.4-1,2.9,0,5.6.4,7.5,1,0,0-.2.4-.5,1-.1.2-.1.3-.4.9-1.7-.6-3.9-.9-6.6-.9-2.7,0-5.3.4-6.6.9,0,0,0-.3-.2-.7h0"/>
      <path class="st87" d="M322.3,225.3c2.4,0,5-.4,5.9-.7.6-.2,1-.5.9-.9,0-.2-.2-.3-.4-.4-1.4-.5-3.9-.8-6.5-.8-2.6,0-5.1.4-6.5.8-.2,0-.3.2-.4.4,0,.4.3.7.9.9,1,.3,3.6.7,5.9.7"/>
    </g>
    <g>
      <path class="st27" d="M322.3,225.3c2.4,0,5-.4,5.9-.7.6-.2,1-.5.9-.9,0-.2-.2-.3-.4-.4-1.4-.5-3.9-.8-6.5-.8-2.6,0-5.1.4-6.5.8-.2,0-.3.2-.4.4,0,.4.3.7.9.9,1,.3,3.6.7,5.9.7h0Z"/>
      <path class="st34" d="M328,215.1c0-.3.2-.5.4-.5s.4.2.4.5-.2.5-.4.5-.4-.2-.4-.5M327.8,213.5c0-.3.2-.5.4-.5s.4.2.4.5-.2.5-.4.5-.4-.2-.4-.5h0ZM326.7,212.5c0-.3.2-.5.4-.5s.4.2.4.5-.2.5-.4.5-.4-.2-.4-.5ZM325.3,212c0-.3.2-.5.4-.5s.4.2.4.5-.2.5-.4.5-.4-.2-.4-.5ZM323.9,212.1c0-.3.2-.5.4-.5s.4.2.4.5-.2.4-.4.4-.4-.2-.4-.4Z"/>
      <path class="st9" d="M332.4,218.2c.1-.3.2-.7.2-1.1,0-1.7-1.2-3-2.7-3-.5,0-.9.1-1.3.4"/>
      <path class="st4" d="M327.5,216c.1-.3.2-.6.2-.9,0-1.2-1.1-2.2-2.6-2.2s-1.2.2-1.6.5"/>
      <path class="st34" d="M332.8,216.8c0-.2.2-.5.4-.5s.4.2.4.5-.2.4-.4.4-.4-.2-.4-.4ZM332.6,215.1c0-.3.2-.5.4-.5s.4.2.4.5-.2.4-.4.4-.4-.2-.4-.4ZM331.6,213.8c0-.2.2-.4.4-.4s.4.2.4.4-.2.5-.4.5-.4-.2-.4-.5ZM330.3,213.2c0-.2.2-.5.4-.5s.4.2.4.4-.2.5-.4.5-.4-.2-.4-.5h0ZM328.9,213.2c0-.3.2-.5.4-.5s.4.2.4.5-.2.5-.4.5-.4-.2-.4-.5Z"/>
    </g>
    <path class="st75" d="M329.9,220.4l-.6-.6s-.5.4-1.2.3c-.7-.1-.9-1-.9-1,0,0-.8.7-1.4.6-.6,0-1-.6-1-.6,0,0-.7.5-1.3.5-.6,0-1.2-.9-1.2-.9,0,0-.6.8-1.2.9-.6,0-1.1-.6-1.1-.6,0,0-.3.6-1,.8-.8.1-1.4-.6-1.4-.6,0,0-.4.8-1,1-.5.2-1.2-.3-1.2-.3,0,0-.1.3-.2.5,0,.2-.3.2-.3.2l.2.5c1.9-.6,4.4-1,7.3-1,2.9,0,5.5.4,7.4,1l.2-.6"/>
    <g>
      <path class="st4" d="M329.9,220.4l-.6-.6s-.5.4-1.2.3c-.7-.1-.9-1-.9-1,0,0-.8.7-1.4.6-.6,0-1-.6-1-.6,0,0-.7.5-1.3.5-.6,0-1.2-.9-1.2-.9,0,0-.6.8-1.2.9-.6,0-1.1-.6-1.1-.6,0,0-.3.6-1,.8-.8.1-1.4-.6-1.4-.6,0,0-.4.8-1,1-.5.2-1.2-.3-1.2-.3,0,0-.1.3-.2.5,0,.2-.3.2-.3.2l.2.5c1.9-.6,4.4-1,7.3-1,2.9,0,5.5.4,7.4,1l.2-.6h0,0Z"/>
      <path class="st34" d="M315.7,215.1c0-.3.2-.5.4-.5s.4.2.4.5-.2.5-.4.5-.4-.2-.4-.5h0ZM315.9,213.5c0-.3.2-.5.4-.5s.4.2.4.5-.2.5-.4.5-.4-.2-.4-.5ZM317,212.5c0-.3.2-.5.4-.5s.4.2.4.5-.2.5-.4.5-.4-.2-.4-.5ZM318.4,212c0-.3.2-.5.4-.5s.4.2.4.5-.2.5-.4.5-.4-.2-.4-.5ZM319.8,212.1c0-.3.2-.5.4-.5s.4.2.4.5-.2.4-.4.4-.4-.2-.4-.4Z"/>
      <path class="st9" d="M312.2,218.2c-.1-.3-.2-.7-.2-1.1,0-1.7,1.2-3,2.7-3s.9.1,1.3.4"/>
      <path class="st4" d="M317.1,216c-.1-.3-.3-.6-.3-.9,0-1.2,1.1-2.2,2.6-2.2s1.2.2,1.6.5"/>
      <path class="st34" d="M311,216.8c0-.2.2-.5.4-.5s.4.2.4.5-.2.4-.4.4-.4-.2-.4-.4ZM311.1,215.1c0-.3.2-.5.4-.5s.4.2.4.5-.2.4-.4.4-.4-.2-.4-.4ZM312.1,213.8c0-.2.2-.4.4-.4s.4.2.4.4-.2.5-.4.5-.4-.2-.4-.5h0ZM313.4,213.2c0-.2.2-.5.4-.5s.4.2.4.4-.2.5-.4.5-.4-.2-.4-.5h0ZM314.8,213.2c0-.3.2-.5.4-.5s.4.2.4.5-.2.5-.4.5-.4-.2-.4-.5h0Z"/>
      <path class="st27" d="M322.3,217.6h.3c0,.2,0,.3,0,.4,0,.6.5,1.1,1.1,1.1s.9-.3,1-.8c0,0,.1-.4.1-.4,0,0,0,.4,0,.4,0,.6.5.9,1.1.9s1.1-.5,1.1-1.1,0,0,0-.1l.3-.4.2.5c0,.1-.1.3-.1.5,0,.6.5,1.1,1,1.1s.7-.2.9-.5l.2-.3v.4c0,.4.1.7.5.8,0,0,.4,0,.9-.4.5-.4.8-.8.8-.8v.4s-.5.9-.9,1.2c-.2.2-.6.3-.9.3-.3,0-.5-.3-.7-.6-.2.2-.5.2-.8.2-.6,0-1.2-.4-1.4-.9-.3.3-.7.5-1.1.5s-.9-.2-1.2-.6c-.3.3-.6.4-1.1.4s-1-.3-1.3-.7c-.3.4-.7.7-1.3.7-.4,0-.8-.2-1.1-.4-.3.4-.7.6-1.2.6s-.8-.2-1.1-.5c-.2.5-.8.9-1.4.9-.3,0-.5,0-.8-.2-.1.3-.3.6-.7.6-.3,0-.7-.1-.9-.3-.5-.3-1-1.2-1-1.2v-.4c0,0,.3.4.8.8.5.4.9.4.9.4.3,0,.5-.4.5-.8v-.4l.2.3c.2.3.5.5.9.5.6,0,1-.5,1-1.1s0-.3-.1-.5l.2-.5.3.4s0,0,0,.1c0,.6.5,1.1,1.1,1.1s1-.4,1.1-.9c0,0,0-.4,0-.4,0,0,.1.4.1.4.1.4.5.8,1,.8s1.1-.5,1.1-1.1,0-.3,0-.4h.3c0,0,0,0,0,0h0Z"/>
    </g>
    <g>
      <path class="st87" d="M322.3,220.5c-2.9,0-5.5.4-7.4,1-.1,0-.3,0-.3-.2,0-.1,0-.3.2-.3,1.9-.6,4.6-1,7.6-1,3,0,5.7.4,7.6,1,.1,0,.2.2.2.3,0,.1-.2.2-.3.2-1.9-.6-4.5-1-7.4-1"/>
      <path class="st72" d="M322.3,220.5c-2.9,0-5.5.4-7.4,1-.1,0-.3,0-.3-.2,0-.1,0-.3.2-.3,1.9-.6,4.6-1,7.6-1,3,0,5.7.4,7.6,1,.1,0,.2.2.2.3,0,.1-.2.2-.3.2-1.9-.6-4.5-1-7.4-1h0Z"/>
      <path class="st86" d="M319.5,221.7c0-.2.2-.4.4-.4s.4.2.4.4-.2.4-.4.4-.4-.2-.4-.4"/>
      <path class="st49" d="M319.5,221.7c0-.2.2-.4.4-.4s.4.2.4.4-.2.4-.4.4-.4-.2-.4-.4h0Z"/>
      <path class="st82" d="M322.4,221.9h-.9c-.2,0-.3-.2-.3-.3s.1-.3.3-.3h1.9c.2,0,.3.1.3.3s-.1.3-.3.3h-1Z"/>
      <path class="st59" d="M322.4,221.9h-.9c-.2,0-.3-.2-.3-.3s.1-.3.3-.3h1.9c.2,0,.3.1.3.3s-.1.3-.3.3h-1Z"/>
      <path class="st85" d="M317.7,222.2h-.7c-.2.1-.3,0-.4-.2,0-.2,0-.3.3-.4h.7c0-.1.7-.2.7-.2.2,0,.3,0,.4.3,0,.2,0,.3-.3.4h-.7Z"/>
      <path class="st59" d="M317.7,222.2h-.7c-.2.1-.3,0-.4-.2,0-.2,0-.3.3-.4h.7c0-.1.7-.2.7-.2.2,0,.3,0,.4.3,0,.2,0,.3-.3.4h-.7Z"/>
      <path class="st82" d="M314.9,222.7l.3-.5h.6c0,.1-.4.7-.4.7l-.6-.2Z"/>
      <path class="st59" d="M314.9,222.7l.3-.5h.6c0,.1-.4.7-.4.7l-.6-.2Z"/>
      <path class="st86" d="M324.3,221.7c0-.2.2-.4.4-.4s.4.2.4.4-.2.4-.4.4-.4-.2-.4-.4"/>
      <path class="st49" d="M324.3,221.7c0-.2.2-.4.4-.4s.4.2.4.4-.2.4-.4.4-.4-.2-.4-.4h0Z"/>
      <path class="st85" d="M327,222.2h.7c.2.1.3,0,.4-.2,0-.2,0-.3-.3-.4h-.7c0-.1-.7-.2-.7-.2-.2,0-.3,0-.4.3,0,.2,0,.3.3.4h.7Z"/>
      <path class="st59" d="M327,222.2h.7c.2.1.3,0,.4-.2,0-.2,0-.3-.3-.4h-.7c0-.1-.7-.2-.7-.2-.2,0-.3,0-.4.3,0,.2,0,.3.3.4h.7Z"/>
      <path class="st82" d="M329.7,222.8l-.2-.6h-.7c0,0,.3.7.3.7h.6"/>
      <path class="st59" d="M329.6,222.7l-.2-.5h-.7c0,0,.3.7.3.7.2,0,.4-.1.6-.2Z"/>
      <path class="st82" d="M322.3,224.7c-2.4,0-4.5-.2-6.1-.7,1.6-.5,3.8-.7,6.1-.7,2.4,0,4.5.3,6.1.7-1.6.5-3.8.7-6.1.7"/>
      <path class="st60" d="M322.3,224.7c-2.4,0-4.5-.2-6.1-.7,1.6-.5,3.8-.7,6.1-.7,2.4,0,4.5.3,6.1.7-1.6.5-3.8.7-6.1.7Z"/>
      <path class="st87" d="M329.8,219.1c0-.2,0-.4-.1-.4-.1,0-.3,0-.3.3,0,.2,0,.4.1.4.1,0,.3,0,.4-.3"/>
      <path class="st49" d="M329.8,219.1c0-.2,0-.4-.1-.4-.1,0-.3,0-.3.3,0,.2,0,.4.1.4.1,0,.3,0,.4-.3Z"/>
      <path class="st87" d="M325.1,218.1c0-.2,0-.4-.2-.4-.1,0-.3.1-.3.3,0,.2,0,.4.2.4.1,0,.3-.1.3-.3"/>
      <path class="st49" d="M325.1,218.1c0-.2,0-.4-.2-.4-.1,0-.3.1-.3.3,0,.2,0,.4.2.4.1,0,.3-.1.3-.3Z"/>
      <path class="st87" d="M319.6,218.1c0-.2,0-.4.2-.4.1,0,.3.1.3.3,0,.2,0,.4-.2.4-.1,0-.3-.1-.3-.3"/>
      <path class="st49" d="M319.6,218.1c0-.2,0-.4.2-.4.1,0,.3.1.3.3,0,.2,0,.4-.2.4-.1,0-.3-.1-.3-.3h0Z"/>
      <path class="st87" d="M314.9,219.1c0-.2,0-.4.1-.4.1,0,.3,0,.4.3,0,.2,0,.4-.1.4-.1,0-.3,0-.4-.3"/>
    </g>
    <g>
      <path class="st34" d="M314.9,219.1c0-.2,0-.4.1-.4.1,0,.3,0,.4.3,0,.2,0,.4-.1.4-.1,0-.3,0-.4-.3h0Z"/>
      <g>
        <path class="st27" d="M322.3,215.2l-.8.5.6,1.5.2.2.2-.2.6-1.5c-.3-.2-.6-.4-.8-.5Z"/>
        <path class="st27" d="M320.5,217.4l.4.6,1.3-.4v-.2c.1,0,0-.2,0-.2l-1.3-.4c-.1.2-.3.4-.4.6ZM324.2,217.4l-.4.6-1.3-.4v-.2c-.1,0,0-.2,0-.2l1.3-.4c.1.2.3.4.4.6ZM316.9,215.8l-.7.7.8,1.2h.2c0,0,.2,0,.2,0l.3-1.5c-.3-.1-.6-.2-.9-.3h0Z"/>
        <path class="st27" d="M315.5,218.2l.5.5,1.2-.7v-.2c0,0,0-.2,0-.2h-1.4c0,.1-.2.3-.2.6h0ZM319.1,217.4l-.3.7h-1.4c0-.1-.2-.3-.2-.3v-.2c0,0,1.3-.7,1.3-.7.2.2.3.4.5.6ZM314.2,218.4v.7c-.1,0-1.5.2-1.5.2h-.2c0-.1,0-.4,0-.4l1-.9c.2.2.4.3.6.4h0Z"/>
      </g>
    </g>
    <path class="st87" d="M316.9,217.8c0-.3.2-.5.5-.5s.5.2.5.5-.2.5-.5.5-.5-.2-.5-.5"/>
    <g>
      <path class="st11" d="M316.9,217.8c0-.3.2-.5.5-.5s.5.2.5.5-.2.5-.5.5-.5-.2-.5-.5Z"/>
      <g>
        <path class="st27" d="M327.8,215.8l.7.7-.8,1.2h-.2c0,0-.2,0-.2,0l-.3-1.5c.3-.1.6-.2.9-.3Z"/>
        <path class="st27" d="M329.1,218.2l-.5.5-1.2-.7v-.2c0,0,0-.2,0-.2h1.4c0,.1.2.3.2.6h0ZM325.6,217.4l.3.7h1.4c0-.1.2-.3.2-.3v-.2c0,0-1.3-.7-1.3-.7-.2.2-.3.4-.5.6h0Z"/>
      </g>
    </g>
    <g>
      <path class="st87" d="M330.2,218.4v.7c.1,0,1.5.2,1.5.2h.2c0-.1,0-.4,0-.4l-1-.9-.6.4"/>
      <path class="st72" d="M330.2,218.4v.7c.1,0,1.5.2,1.5.2h.2c0-.1,0-.4,0-.4l-1-.9c-.2.1-.4.3-.6.4Z"/>
      <path class="st87" d="M321.9,217.3c0-.3.2-.5.5-.5s.5.2.5.5-.2.5-.5.5-.5-.2-.5-.5"/>
      <path class="st35" d="M321.9,217.3c0-.3.2-.5.5-.5s.5.2.5.5-.2.5-.5.5-.5-.2-.5-.5Z"/>
      <path class="st87" d="M326.9,217.8c0-.3.2-.5.5-.5s.5.2.5.5-.2.5-.5.5-.5-.2-.5-.5"/>
      <path class="st35" d="M326.9,217.8c0-.3.2-.5.5-.5s.5.2.5.5-.2.5-.5.5-.5-.2-.5-.5Z"/>
      <path class="st87" d="M323,211.5v.6h-1.4v-.6h.5v-1.4h-.6v-.6h.6v-.6h.6v.6h.6v.6h-.6v1.4h.3"/>
    </g>
    <g>
      <path class="st4" d="M323,211.5v.6h-1.4v-.6h.5v-1.4h-.6v-.6h.6v-.6h.6v.6h.6v.6h-.6v1.4h.3,0Z"/>
      <path class="st23" d="M322.7,210.6c.5.1.8.6.8,1.2s-.5,1.2-1.2,1.2-1.2-.5-1.2-1.2.4-1,.9-1.2"/>
      <path class="st27" d="M312.4,219.2c-.2-.3-.4-.5-.6-.7-.2-.2-.7-.3-.7-.3,0,0,.3-.3.6-.3s.3,0,.4.2v-.2s.3,0,.4.3c.1.3,0,.8,0,.8,0,0-.1.2-.2.3h0Z"/>
      <path class="st11" d="M312.4,219c.1-.1.3-.1.5,0,.2.2.2.4.1.5-.1.1-.3.1-.5,0-.2-.2-.2-.4-.1-.5h0Z"/>
    </g>
    <g>
      <path class="st87" d="M332.1,219.2s.4-.5.6-.8c.2-.2.7-.3.7-.3,0,0-.3-.3-.6-.3s-.3,0-.4.2v-.2s-.3,0-.4.3c-.1.3,0,.8,0,.8,0,0,0,.2.1.3"/>
      <path class="st72" d="M332.1,219.2s.4-.5.6-.8c.2-.2.7-.3.7-.3,0,0-.3-.3-.6-.3s-.3,0-.4.2v-.2s-.3,0-.4.3c-.1.3,0,.8,0,.8,0,.1,0,.2.1.3h0Z"/>
      <path class="st87" d="M332.1,219c-.1-.1-.3-.1-.5,0-.2.2-.2.4-.1.5.1.1.3.1.5,0,.2-.2.2-.4.1-.5"/>
    </g>
    <g>
      <path class="st11" d="M332.1,219c-.1-.1-.3-.1-.5,0-.2.2-.2.4-.1.5.1.1.3.1.5,0,.2-.2.2-.4.1-.5h0Z"/>
      <path class="st27" d="M323.6,211.5v.6h-2.5v-.6h.9v-1.4h-.6v-.6h.6v-.6h.6v.6h.6v.6h-.6v1.4h1Z"/>
      <g>
        <path class="st12" d="M322.3,224.7v-1.3M322,224.7v-1.3"/>
        <path class="st73" d="M321.7,224.7v-1.3M321.3,224.7v-1.3M321.1,224.7v-1.3M320.5,224.6v-1.2M320.8,224.6v-1.3"/>
        <path class="st61" d="M320.1,224.6v-1.1M320.3,224.6v-1.2M319.4,224.5v-1M319.6,224.5v-1M319.8,224.6v-1.1"/>
        <path class="st16" d="M319.2,224.5v-1M318.9,224.5v-1M318.7,224.5v-1M318.2,224.4v-.8M318.5,224.5v-.9"/>
        <path class="st28" d="M318,224.4v-.7M317.8,224.4v-.7M317.5,224.3v-.5M317.3,224.3v-.5M317,224.2v-.4"/>
        <path class="st12" d="M323.6,224.6v-1.2M323.1,224.7v-1.3M322.7,224.7v-1.3"/>
      </g>
    </g>
    <g>
      <path class="st81" d="M311.5,231.3h21.6v-6.2h-21.6v6.2Z"/>
      <path class="st17" d="M311.5,231.3h21.6v-6.2h-21.6v6.2Z"/>
      <path class="st81" d="M330.8,235.4c-.1,0-.2,0-.4,0h-16.2c-.2,0-.3,0-.4,0,.6-.2,1-.7,1-1.4s-.4-1.2-1-1.4c.1,0,.3,0,.5,0h16.2c.2,0,.3,0,.5,0h0c-.6.2-.9.8-.9,1.4s.4,1.2.9,1.4"/>
      <path class="st71" d="M330.8,235.4c-.1,0-.2,0-.4,0h-16.2c-.2,0-.3,0-.4,0,.6-.2,1-.7,1-1.4s-.4-1.2-1-1.4c.1,0,.3,0,.5,0h16.2c.2,0,.3,0,.5,0h0c-.6.2-.9.8-.9,1.4s.4,1.2.9,1.4h0Z"/>
      <path class="st81" d="M314.2,235.3h16.2c.5,0,1,.4,1,.8s-.4.8-1,.8h-16.2c-.5,0-1-.4-1-.8s.4-.8,1-.8"/>
      <path class="st17" d="M314.2,235.3h16.2c.5,0,1,.4,1,.8s-.4.8-1,.8h-16.2c-.5,0-1-.4-1-.8s.4-.8,1-.8Z"/>
      <path class="st81" d="M314.2,231.3h16.2c.5,0,1,.3,1,.7s-.4.7-1,.7h-16.2c-.5,0-1-.3-1-.7s.4-.7,1-.7"/>
      <path class="st17" d="M314.2,231.3h16.2c.5,0,1,.3,1,.7s-.4.7-1,.7h-16.2c-.5,0-1-.3-1-.7s.4-.7,1-.7h0Z"/>
      <path class="st81" d="M330.8,324.7c0,.2-.1.4-.1.7,0,1.5,1.2,2.8,2.7,2.8h-22.2c1.5,0,2.7-1.2,2.7-2.8s0-.4,0-.7c.1,0,.3,0,.4,0h16.2c.1,0,.3,0,.4,0"/>
      <path class="st71" d="M330.8,324.7c0,.2-.1.4-.1.7,0,1.5,1.2,2.8,2.7,2.8h-22.2c1.5,0,2.7-1.2,2.7-2.8s0-.4,0-.7c.1,0,.3,0,.4,0h16.2c.1,0,.3,0,.4,0h0,0Z"/>
      <path class="st81" d="M314.2,323.1h16.2c.5,0,1,.4,1,.8s-.4.8-1,.8h-16.2c-.5,0-1-.4-1-.8s.4-.8,1-.8"/>
      <path class="st17" d="M314.2,323.1h16.2c.5,0,1,.4,1,.8s-.4.8-1,.8h-16.2c-.5,0-1-.4-1-.8s.4-.8,1-.8h0Z"/>
      <path class="st81" d="M311.2,334.3h22.2v-6.2h-22.2v6.2Z"/>
      <path class="st17" d="M311.2,334.3h22.2v-6.2h-22.2v6.2Z"/>
      <path class="st90" d="M335.1,301.3c2.2,1.4,3.7,2.8,3.4,3.5-.1.6-.8,1.1-1.8,1.9-1.6,1.2-2.5,3.3-1.8,4.3-1.3-1.1-2.1-2.8-2.1-4.7s.9-3.8,2.3-4.9"/>
      <path class="st20" d="M335.1,301.3c2.2,1.4,3.7,2.8,3.4,3.5-.1.6-.8,1.1-1.8,1.9-1.6,1.2-2.5,3.3-1.8,4.3-1.3-1.1-2.1-2.8-2.1-4.7s.9-3.8,2.3-4.9h0Z"/>
      <path class="st88" d="M314.4,322.1h15.8v-84.1h-15.8v84.1Z"/>
      <path class="st15" d="M325.9,237.9v83.9M327.6,237.9v83.9M314.4,322.1h15.8v-84.1h-15.8v84.1Z"/>
      <path class="st90" d="M298.3,269.4c3.4-1.5,9.3-2.7,16-2.9,2.3,0,4.9.3,7.5.7,9.4,1.7,16.6,5.8,16,9.2,0,0,0,.2,0,.3,0,0,3.5-8.7,3.6-9,.6-3.7-7.3-8.3-17.8-10.2-3.3-.6-6.5-.8-9.3-.8-6.7,0-12.5.9-16,2.4v10.4"/>
      <path class="st25" d="M298.3,269.4c3.4-1.5,9.3-2.7,16-2.9,2.3,0,4.9.3,7.5.7,9.4,1.7,16.6,5.8,16,9.2,0,0,0,.2,0,.3,0,0,3.5-8.7,3.6-9,.6-3.7-7.3-8.3-17.8-10.2-3.3-.6-6.5-.8-9.3-.8-6.7,0-12.5.9-16,2.4v10.4"/>
      <path class="st90" d="M330.2,280c4.4-.3,7.4-1.6,7.7-3.6.3-1.6-1.2-3.3-3.8-4.9-1.2.1-2.5.3-3.9.3v8.2"/>
      <path class="st20" d="M330.2,280c4.4-.3,7.4-1.6,7.7-3.6.3-1.6-1.2-3.3-3.8-4.9-1.2.1-2.5.3-3.9.3v8.2"/>
      <path class="st90" d="M314.4,273.6c-2.7.4-4.8,1.2-5.8,2.1v.2c-.6,1.1,1.8,3.4,5.8,6v-8.3Z"/>
      <path class="st20" d="M314.4,273.6c-2.7.4-4.8,1.2-5.8,2.1v.2c-.6,1.1,1.8,3.4,5.8,6v-8.3Z"/>
      <path class="st82" d="M340,296.2c.4-1.4-3.8-4.1-9.9-6.5-2.8-1.1-5-2.2-7.8-3.5-8.4-4-14.5-8.7-13.8-10.3v-.2c-.4.4-1,8.7-1,8.7-.8,1.5,4.9,6.1,12.6,10.1,2.5,1.3,7.7,3.4,10.1,4.3,4.4,1.7,8.8,4.8,8.4,6l1.5-8.6"/>
      <g>
        <path class="st7" d="M340,296.2c.4-1.4-3.8-4.1-9.9-6.5-2.8-1.1-5-2.2-7.8-3.5-8.4-4-14.5-8.7-13.8-10.3v-.2c-.4.4-1,8.7-1,8.7-.8,1.5,4.9,6.1,12.6,10.1,2.5,1.3,7.7,3.4,10.1,4.3,4.4,1.7,8.8,4.8,8.4,6l1.5-8.6h0s0,0,0,0Z"/>
        <path class="st64" d="M308.2,265.7c.6-2.5,1.4-4.8,2.1-7.3-.2,0-.3,0-.5.1-.2,0-.4,0-.5,0-.4,1.7-.8,3.5-1.4,5.2-.9-1.5-1.9-3-2.8-4.5-.3,0-.7.2-1,.2-.3,0-.7,0-1,.1,1.4,2.1,2.8,4.1,4.1,6.2.2,0,.3-.1.5-.1.2,0,.3,0,.5,0M314.2,258.5c-.3,0-.6,0-.9,0-.3,0-.6,0-.9,0v6.8c-.1,0,4.2,0,4.2,0,0-.1,0-.3,0-.4,0-.1,0-.3,0-.4-.8,0-1.6.1-2.6,0v-6.1M321,259.6c.7,0,1.4.2,2,.3,0-.1,0-.3,0-.4,0-.1,0-.3,0-.4l-5.9-.5c0,.1,0,.3,0,.4,0,.2,0,.3,0,.4.6,0,1.3,0,2.1,0l-.5,6.1c.3,0,.6,0,.9,0,.3,0,.6,0,.9.1l.5-6.1M323.4,266.3c.3,0,.6,0,.9.2.3,0,.6.2.8.2l.7-3.1h0c.2.4.4,1,.5,1.3l.9,2.4c.3,0,.7.1,1,.2.3,0,.7.2,1,.3l-.3-.7c-.5-1.1-1-2.1-1.4-3.2,1.1,0,1.9-.4,2.1-1.3.1-.7,0-1.2-.7-1.6-.4-.3-1.2-.5-1.8-.6l-2.4-.6-1.5,6.6M326.4,260.6c.7.2,1.5.3,1.5,1.1,0,.2,0,.4,0,.5-.2,1-.9,1.3-2.1,1l.6-2.6M334.6,268.4c0,.7-.2,1.4-.3,2.2.3.2.6.3.9.5.3.2.6.4.8.6l.6-7.6c-.1,0-.3-.1-.4-.2-.1,0-.2-.2-.4-.3l-6.2,4.3c.2,0,.3.2.5.3.2,0,.3.2.5.3.5-.5,1.1-.9,1.7-1.4l2.3,1.4h0s0,0,0,0ZM332.8,266.6l2.1-1.5-.2,2.5-1.8-1.1Z"/>
      </g>
      <path class="st84" d="M307.2,335.1c1.5,0,2.8-.3,3.8-.9,1-.5,2.3-.9,3.7-.9s2.8.3,3.8.9c1,.6,2.3.9,3.8.9s2.8-.4,3.8-.9c1-.5,2.3-.8,3.7-.8s2.8.3,3.7.9c1,.6,2.3.9,3.8.9v2.6c-1.5,0-2.9-.4-3.8-.9-1-.5-2.3-.9-3.7-.9s-2.7.3-3.7.8c-1,.6-2.3,1-3.8,1s-2.8-.4-3.8-.9c-1-.6-2.3-.9-3.8-.9s-2.8.3-3.7.9c-1,.6-2.3.9-3.8.9v-2.6"/>
      <path class="st42" d="M307.2,335.1c1.5,0,2.8-.3,3.8-.9,1-.5,2.3-.9,3.7-.9s2.8.3,3.8.9c1,.6,2.3.9,3.8.9s2.8-.4,3.8-.9c1-.5,2.3-.8,3.7-.8s2.8.3,3.7.9c1,.6,2.3.9,3.8.9v2.6c-1.5,0-2.9-.4-3.8-.9-1-.5-2.3-.9-3.7-.9s-2.7.3-3.7.8c-1,.6-2.3,1-3.8,1s-2.8-.4-3.8-.9c-1-.6-2.3-.9-3.8-.9s-2.8.3-3.7.9c-1,.6-2.3.9-3.8.9v-2.6Z"/>
      <path class="st88" d="M307.2,337.7c1.5,0,2.8-.3,3.8-.9,1-.5,2.3-.9,3.7-.9s2.8.3,3.8.9c1,.6,2.3.9,3.8.9s2.8-.4,3.8-1c1-.5,2.3-.8,3.7-.8s2.8.3,3.7.9c1,.6,2.3.9,3.8.9v2.5c-1.5,0-2.9-.4-3.8-.9-1-.6-2.3-.9-3.7-.9s-2.7.3-3.7.8c-1,.6-2.3.9-3.8.9s-2.8-.4-3.8-.9c-1-.5-2.3-.9-3.8-.9s-2.8.3-3.7.9c-1,.6-2.3.9-3.8.9v-2.5"/>
      <path class="st15" d="M307.2,337.7c1.5,0,2.8-.3,3.8-.9,1-.5,2.3-.9,3.7-.9s2.8.3,3.8.9c1,.6,2.3.9,3.8.9s2.8-.4,3.8-1c1-.5,2.3-.8,3.7-.8s2.8.3,3.7.9c1,.6,2.3.9,3.8.9v2.5c-1.5,0-2.9-.4-3.8-.9-1-.6-2.3-.9-3.7-.9s-2.7.3-3.7.8c-1,.6-2.3.9-3.8.9s-2.8-.4-3.8-.9c-1-.5-2.3-.9-3.8-.9s-2.8.3-3.7.9c-1,.6-2.3.9-3.8.9v-2.5"/>
      <path class="st84" d="M307.2,340.2c1.5,0,2.8-.3,3.8-.9,1-.5,2.3-.9,3.7-.9s2.8.3,3.8.9c1,.6,2.3.9,3.8.9s2.8-.4,3.8-.9c1-.5,2.3-.8,3.7-.8s2.8.3,3.7.9c1,.6,2.3.9,3.8.9v2.5c-1.5,0-2.9-.4-3.8-.9-1-.5-2.3-.9-3.7-.9s-2.7.3-3.7.8c-1,.6-2.3.9-3.8.9s-2.8-.3-3.8-.9c-1-.5-2.3-.9-3.8-.9s-2.8.3-3.7.9c-1,.6-2.3.9-3.8.9v-2.5"/>
      <path class="st42" d="M307.2,340.2c1.5,0,2.8-.3,3.8-.9,1-.5,2.3-.9,3.7-.9s2.8.3,3.8.9c1,.6,2.3.9,3.8.9s2.8-.4,3.8-.9c1-.5,2.3-.8,3.7-.8s2.8.3,3.7.9c1,.6,2.3.9,3.8.9v2.5c-1.5,0-2.9-.4-3.8-.9-1-.5-2.3-.9-3.7-.9s-2.7.3-3.7.8c-1,.6-2.3.9-3.8.9s-2.8-.3-3.8-.9c-1-.5-2.3-.9-3.8-.9s-2.8.3-3.7.9c-1,.6-2.3.9-3.8.9v-2.5"/>
      <path class="st88" d="M307.2,345.3c1.5,0,2.8-.3,3.8-.9,1-.5,2.3-.9,3.7-.9s2.8.3,3.8.9c1,.6,2.3.9,3.8.9s2.8-.4,3.8-1c1-.5,2.3-.8,3.7-.8s2.8.3,3.7.9c1,.6,2.3.9,3.8.9v-2.5c-1.5,0-2.9-.4-3.8-.9-1-.5-2.3-.9-3.7-.9s-2.7.3-3.7.8c-1,.6-2.3.9-3.8.9s-2.8-.3-3.8-.9c-1-.5-2.3-.9-3.8-.9s-2.8.3-3.7.9c-1,.6-2.3.9-3.8.9v2.5"/>
      <path class="st15" d="M307.2,345.3c1.5,0,2.8-.3,3.8-.9,1-.5,2.3-.9,3.7-.9s2.8.3,3.8.9c1,.6,2.3.9,3.8.9s2.8-.4,3.8-1c1-.5,2.3-.8,3.7-.8s2.8.3,3.7.9c1,.6,2.3.9,3.8.9v-2.5c-1.5,0-2.9-.4-3.8-.9-1-.5-2.3-.9-3.7-.9s-2.7.3-3.7.8c-1,.6-2.3.9-3.8.9s-2.8-.3-3.8-.9c-1-.5-2.3-.9-3.8-.9s-2.8.3-3.7.9c-1,.6-2.3.9-3.8.9v2.5"/>
      <path class="st84" d="M307.2,347.9c1.5,0,2.8-.3,3.8-.9,1-.5,2.3-.9,3.7-.9s2.8.3,3.8.9c1,.6,2.3.9,3.8.9s2.8-.4,3.8-1c1-.5,2.3-.8,3.7-.8s2.8.3,3.7.9c1,.6,2.3.9,3.8.9v-2.5c-1.5,0-2.9-.4-3.8-1-1-.5-2.3-.9-3.7-.9s-2.7.3-3.7.8c-1,.6-2.3.9-3.8.9s-2.8-.4-3.8-.9c-1-.5-2.3-.9-3.8-.9s-2.8.3-3.7.9c-1,.6-2.3.9-3.8.9v2.5"/>
      <path class="st42" d="M307.2,347.9c1.5,0,2.8-.3,3.8-.9,1-.5,2.3-.9,3.7-.9s2.8.3,3.8.9c1,.6,2.3.9,3.8.9s2.8-.4,3.8-1c1-.5,2.3-.8,3.7-.8s2.8.3,3.7.9c1,.6,2.3.9,3.8.9v-2.5c-1.5,0-2.9-.4-3.8-1-1-.5-2.3-.9-3.7-.9s-2.7.3-3.7.8c-1,.6-2.3.9-3.8.9s-2.8-.4-3.8-.9c-1-.5-2.3-.9-3.8-.9s-2.8.3-3.7.9c-1,.6-2.3.9-3.8.9v2.5Z"/>
      <path class="st90" d="M170.4,220.6s-.5,0-.8-.2c-.3-.2-1.1-1-1.1-1l-.7-.5-.6-.9s-.7-1.2-.4-2.2c.3-1,.9-1.3,1.4-1.6.5-.3,1.5-.6,1.5-.6,0,0,.8-.4,1.1-.5.3,0,1.3-.3,1.3-.3,0,0,.3-.2.5-.3.3-.1.7-.1.9-.2.2,0,.8-.2,1.1-.3.5,0,1.3,0,1.6,0s1.2,0,1.6,0,1.8-.1,2.1-.1.7,0,1.1,0c.4,0,1.2.3,1.4.5.2.1,1.5.6,2,.8.5.2,1.7.4,2.2.7.5.3.9.8,1.2,1.2.3.4.3.8.4,1.1.1.3.1.9,0,1.2-.1.3-.5.9-.5.9l-.6,1.1-.8.7s-.5.6-1,.5c-.4,0-4.9-.9-7.7-.9s-7.4.9-7.4.9"/>
      <g>
        <path class="st74" d="M170.4,220.6s-.5,0-.8-.2c-.3-.2-1.1-1-1.1-1l-.7-.5-.6-.9s-.7-1.2-.4-2.2c.3-1,.9-1.3,1.4-1.6.5-.3,1.5-.6,1.5-.6,0,0,.8-.4,1.1-.5.3,0,1.3-.3,1.3-.3,0,0,.3-.2.5-.3.3-.1.7-.1.9-.2.2,0,.8-.2,1.1-.3.5,0,1.3,0,1.6,0s1.2,0,1.6,0,1.8-.1,2.1-.1.7,0,1.1,0c.4,0,1.2.3,1.4.5.2.1,1.5.6,2,.8.5.2,1.7.4,2.2.7.5.3.9.8,1.2,1.2.3.4.3.8.4,1.1.1.3.1.9,0,1.2-.1.3-.5.9-.5.9l-.6,1.1-.8.7s-.5.6-1,.5c-.4,0-4.9-.9-7.7-.9s-7.4.9-7.4.9h0Z"/>
        <g>
          <path class="st27" d="M176.5,213.6c0-1.5.6-2.6,1.3-2.6s1.3,1.2,1.3,2.6-.6,2.6-1.3,2.6-1.3-1.2-1.3-2.6h0Z"/>
          <path class="st27" d="M177.3,213.6c0-1.3.3-2.4.6-2.4s.6,1.1.6,2.4-.3,2.4-.6,2.4-.6-1.1-.6-2.4Z"/>
          <path class="st27" d="M177.9,220.4h-4.7v-1.2c-.1,0-.3-1.3-.3-1.3l-.2-1.6c-1.3-1.8-2.5-3.1-2.9-2.8,0-.3.2-.6.5-.8,1.1-.7,3.5,1,5.3,3.9.2.3.3.5.4.8h3.8c.1-.3.3-.5.5-.8,1.8-2.9,4.1-4.7,5.3-3.9.2.2.4.4.5.8-.4-.3-1.6,1-2.9,2.8l-.2,1.6-.2,1.3v1.2h-4.8Z"/>
        </g>
        <path class="st4" d="M170,213.4c.9-.6,2.9,1.2,4.6,3.9M185.8,213.4c-.9-.6-2.9,1.2-4.6,3.9"/>
      </g>
      <path class="st75" d="M171,222.7c-.2-.6-.6-1.1-.6-1.1,1.9-.6,4.5-1,7.4-1,2.9,0,5.6.4,7.5,1,0,0-.2.4-.5,1-.2.3-.4.9-.4.9-1.7-.6-3.9-.9-6.6-.9-2.7,0-5.3.4-6.6.9,0,0,0-.3-.2-.7h0"/>
      <path class="st4" d="M171,222.7c-.2-.6-.6-1.1-.6-1.1,1.9-.6,4.5-1,7.4-1,2.9,0,5.6.4,7.5,1,0,0-.2.4-.5,1-.1.2-.1.3-.4.9-1.7-.6-3.9-.9-6.6-.9-2.7,0-5.3.4-6.6.9,0,0,0-.3-.2-.7h0"/>
      <path class="st87" d="M177.8,225.3c2.4,0,5-.4,5.9-.7.6-.2,1-.5.9-.9,0-.2-.2-.3-.4-.4-1.4-.5-3.9-.8-6.5-.8-2.6,0-5.1.4-6.5.8-.2,0-.3.2-.4.4,0,.4.3.7.9.9,1,.3,3.6.7,5.9.7"/>
      <path class="st27" d="M177.8,225.3c2.4,0,5-.4,5.9-.7.6-.2,1-.5.9-.9,0-.2-.2-.3-.4-.4-1.4-.5-3.9-.8-6.5-.8-2.6,0-5.1.4-6.5.8-.2,0-.3.2-.4.4,0,.4.3.7.9.9,1,.3,3.6.7,5.9.7Z"/>
      <path class="st75" d="M185.4,220.4l-.6-.6s-.5.4-1.2.3c-.7-.1-.9-1-.9-1,0,0-.8.7-1.4.6-.6,0-1-.6-1-.6,0,0-.7.5-1.3.5-.6,0-1.2-.9-1.2-.9,0,0-.6.8-1.2.9-.6,0-1.1-.6-1.1-.6,0,0-.3.6-1,.8-.8.1-1.4-.6-1.4-.6,0,0-.4.8-1,1-.5.2-1.2-.3-1.2-.3,0,0-.1.3-.2.5,0,.2-.3.2-.3.2l.2.5c1.9-.6,4.4-1,7.3-1,2.9,0,5.5.4,7.4,1l.2-.6"/>
      <path class="st4" d="M185.4,220.4l-.6-.6s-.5.4-1.2.3c-.7-.1-.9-1-.9-1,0,0-.8.7-1.4.6-.6,0-1-.6-1-.6,0,0-.7.5-1.3.5-.6,0-1.2-.9-1.2-.9,0,0-.6.8-1.2.9-.6,0-1.1-.6-1.1-.6,0,0-.3.6-1,.8-.8.1-1.4-.6-1.4-.6,0,0-.4.8-1,1-.5.2-1.2-.3-1.2-.3,0,0-.1.3-.2.5,0,.2-.3.2-.3.2l.2.5c1.9-.6,4.4-1,7.3-1,2.9,0,5.5.4,7.4,1l.2-.6h0Z"/>
      <path class="st27" d="M177.8,217.6h.3c0,.2,0,.3,0,.4,0,.6.5,1.1,1.1,1.1s.9-.3,1-.8c0,0,.1-.4.1-.4,0,0,0,.4,0,.4,0,.6.5.9,1.1.9s1.1-.5,1.1-1.1,0,0,0-.1l.3-.4.2.5c0,.1-.1.3-.1.5,0,.6.5,1.1,1,1.1s.7-.2.9-.5l.2-.3v.4c0,.4.1.7.5.8,0,0,.4,0,.9-.4.5-.4.8-.8.8-.8v.4s-.5.9-.9,1.2c-.2.2-.6.3-.9.3-.3,0-.5-.3-.7-.6-.2.2-.5.2-.8.2-.6,0-1.2-.4-1.4-.9-.3.3-.7.5-1.1.5s-.9-.2-1.2-.6c-.3.3-.6.4-1.1.4s-1-.3-1.3-.7c-.3.4-.7.7-1.3.7-.4,0-.8-.2-1.1-.4-.3.4-.7.6-1.2.6s-.8-.2-1.1-.5c-.2.5-.8.9-1.4.9-.3,0-.5,0-.8-.2-.1.3-.3.6-.7.6-.3,0-.7-.1-.9-.3-.5-.3-1-1.2-1-1.2v-.4c0,0,.3.4.8.8.5.4.9.4.9.4.3,0,.5-.4.5-.8v-.4l.2.3c.2.3.5.5.9.5.6,0,1-.5,1-1.1s0-.3-.1-.5l.2-.5.3.4s0,0,0,.1c0,.6.5,1.1,1.1,1.1s1-.4,1.1-.9c0,0,0-.4,0-.4,0,0,.1.4.1.4.1.4.5.8,1,.8s1.1-.5,1.1-1.1,0-.3,0-.4h.3c0,0,0,0,0,0h0Z"/>
      <path class="st87" d="M177.8,220.5c-2.9,0-5.5.4-7.4,1-.1,0-.3,0-.3-.2,0-.1,0-.3.2-.3,1.9-.6,4.6-1,7.6-1,3,0,5.7.4,7.6,1,.1,0,.2.2.2.3,0,.1-.2.2-.3.2-1.9-.6-4.5-1-7.4-1"/>
      <path class="st27" d="M177.8,220.5c-2.9,0-5.5.4-7.4,1-.1,0-.3,0-.3-.2,0-.1,0-.3.2-.3,1.9-.6,4.6-1,7.6-1,3,0,5.7.4,7.6,1,.1,0,.2.2.2.3,0,.1-.2.2-.3.2-1.9-.6-4.5-1-7.4-1Z"/>
      <path class="st86" d="M175,221.7c0-.2.2-.4.4-.4s.4.2.4.4-.2.4-.4.4-.4-.2-.4-.4"/>
      <path class="st34" d="M175,221.7c0-.2.2-.4.4-.4s.4.2.4.4-.2.4-.4.4-.4-.2-.4-.4h0Z"/>
      <path class="st90" d="M177.9,221.9h-.9c-.2,0-.3-.2-.3-.3s.1-.3.3-.3h1.9c.2,0,.3.1.3.3s-.1.3-.3.3h-1Z"/>
      <path class="st11" d="M177.9,221.9h-.9c-.2,0-.3-.2-.3-.3s.1-.3.3-.3h1.9c.2,0,.3.1.3.3s-.1.3-.3.3h-1Z"/>
      <path class="st85" d="M173.2,222.2h-.7c-.2.1-.3,0-.4-.2,0-.2,0-.3.3-.4h.7c0-.1.7-.2.7-.2.2,0,.3,0,.4.3,0,.2,0,.3-.3.4h-.7Z"/>
      <path class="st4" d="M173.2,222.2h-.7c-.2.1-.3,0-.4-.2,0-.2,0-.3.3-.4h.7c0-.1.7-.2.7-.2.2,0,.3,0,.4.3,0,.2,0,.3-.3.4h-.7Z"/>
      <path class="st90" d="M170.4,222.7l.3-.5h.6c0,.1-.4.7-.4.7l-.6-.2Z"/>
      <path class="st11" d="M170.4,222.7l.3-.5h.6c0,.1-.4.7-.4.7l-.6-.2Z"/>
      <path class="st86" d="M179.8,221.7c0-.2.2-.4.4-.4s.4.2.4.4-.2.4-.4.4-.4-.2-.4-.4"/>
      <path class="st34" d="M179.8,221.7c0-.2.2-.4.4-.4s.4.2.4.4-.2.4-.4.4-.4-.2-.4-.4h0Z"/>
      <path class="st85" d="M182.5,222.2h.7c.2.1.3,0,.4-.2,0-.2,0-.3-.3-.4h-.7c0-.1-.7-.2-.7-.2-.2,0-.3,0-.4.3,0,.2,0,.3.3.4h.7Z"/>
      <path class="st4" d="M182.5,222.2h.7c.2.1.3,0,.4-.2,0-.2,0-.3-.3-.4h-.7c0-.1-.7-.2-.7-.2-.2,0-.3,0-.4.3,0,.2,0,.3.3.4h.7Z"/>
      <path class="st90" d="M185.2,222.8l-.2-.6h-.7c0,0,.3.7.3.7h.6"/>
      <path class="st11" d="M185.1,222.7l-.2-.5h-.7c0,0,.3.7.3.7.2,0,.4-.1.6-.2Z"/>
      <path class="st90" d="M177.8,224.7c-2.4,0-4.5-.2-6.1-.7,1.6-.5,3.8-.7,6.1-.7,2.4,0,4.5.3,6.1.7-1.6.5-3.8.7-6.1.7"/>
      <path class="st74" d="M177.8,224.7c-2.4,0-4.5-.2-6.1-.7,1.6-.5,3.8-.7,6.1-.7,2.4,0,4.5.3,6.1.7-1.6.5-3.8.7-6.1.7h0Z"/>
      <path class="st87" d="M185.3,219.1c0-.2,0-.4-.1-.4-.1,0-.3,0-.3.3,0,.2,0,.4.1.4.1,0,.3,0,.4-.3"/>
      <path class="st34" d="M185.3,219.1c0-.2,0-.4-.1-.4-.1,0-.3,0-.3.3,0,.2,0,.4.1.4.1,0,.3,0,.4-.3Z"/>
      <path class="st87" d="M180.6,218.1c0-.2,0-.4-.2-.4-.1,0-.3.1-.3.3,0,.2,0,.4.2.4.1,0,.3-.1.3-.3"/>
      <path class="st34" d="M180.6,218.1c0-.2,0-.4-.2-.4-.1,0-.3.1-.3.3,0,.2,0,.4.2.4.1,0,.3-.1.3-.3Z"/>
      <path class="st87" d="M175.1,218.1c0-.2,0-.4.2-.4.1,0,.3.1.3.3,0,.2,0,.4-.2.4-.1,0-.3-.1-.3-.3"/>
      <path class="st34" d="M175.1,218.1c0-.2,0-.4.2-.4.1,0,.3.1.3.3,0,.2,0,.4-.2.4-.1,0-.3-.1-.3-.3Z"/>
      <path class="st87" d="M170.4,219.1c0-.2,0-.4.1-.4.1,0,.3,0,.4.3,0,.2,0,.4-.1.4-.1,0-.3,0-.4-.3"/>
      <g>
        <path class="st34" d="M170.4,219.1c0-.2,0-.4.1-.4.1,0,.3,0,.4.3,0,.2,0,.4-.1.4-.1,0-.3,0-.4-.3Z"/>
        <g>
          <path class="st27" d="M177.8,215.2l-.8.5.6,1.5.2.2.2-.2.6-1.5c-.3-.2-.6-.4-.8-.5h0Z"/>
          <path class="st27" d="M176,217.4l.4.6,1.3-.4v-.2c.1,0,0-.2,0-.2l-1.3-.4c-.1.2-.3.4-.4.6ZM179.7,217.4l-.4.6-1.3-.4v-.2c-.1,0,0-.2,0-.2l1.3-.4c.1.2.3.4.4.6ZM172.4,215.8l-.7.7.8,1.2h.2c0,0,.2,0,.2,0l.3-1.5c-.3-.1-.6-.2-.9-.3Z"/>
          <path class="st27" d="M171,218.2l.5.5,1.2-.7v-.2c0,0,0-.2,0-.2h-1.4c0,.1-.2.3-.2.6ZM174.6,217.4l-.3.7h-1.4c0-.1-.2-.3-.2-.3v-.2c0,0,1.3-.7,1.3-.7.2.2.3.4.5.6ZM169.7,218.4v.7c-.1,0-1.5.2-1.5.2h-.2c0-.1,0-.4,0-.4l1-.9c.2.2.4.3.6.4Z"/>
        </g>
      </g>
      <path class="st87" d="M172.4,217.8c0-.3.2-.5.5-.5s.5.2.5.5-.2.5-.5.5-.5-.2-.5-.5"/>
      <g>
        <path class="st11" d="M172.4,217.8c0-.3.2-.5.5-.5s.5.2.5.5-.2.5-.5.5-.5-.2-.5-.5Z"/>
        <g>
          <path class="st27" d="M183.3,215.8l.7.7-.8,1.2h-.2c0,0-.2,0-.2,0l-.3-1.5c.3-.1.6-.2.9-.3Z"/>
          <path class="st27" d="M184.6,218.2l-.5.5-1.2-.7v-.2c0,0,0-.2,0-.2h1.4c0,.1.2.3.2.6ZM181,217.4l.3.7h1.4c0-.1.2-.3.2-.3v-.2c0,0-1.3-.7-1.3-.7-.2.2-.3.4-.5.6Z"/>
        </g>
      </g>
      <path class="st87" d="M185.7,218.4v.7c.1,0,1.5.2,1.5.2h.2c0-.1,0-.4,0-.4l-1-.9-.6.4"/>
      <path class="st27" d="M185.7,218.4v.7c.1,0,1.5.2,1.5.2h.2c0-.1,0-.4,0-.4l-1-.9c-.2.1-.4.3-.6.4Z"/>
      <path class="st87" d="M177.4,217.3c0-.3.2-.5.5-.5s.5.2.5.5-.2.5-.5.5-.5-.2-.5-.5"/>
      <path class="st11" d="M177.4,217.3c0-.3.2-.5.5-.5s.5.2.5.5-.2.5-.5.5-.5-.2-.5-.5Z"/>
      <path class="st87" d="M182.4,217.8c0-.3.2-.5.5-.5s.5.2.5.5-.2.5-.5.5-.5-.2-.5-.5"/>
      <g>
        <path class="st11" d="M182.4,217.8c0-.3.2-.5.5-.5s.5.2.5.5-.2.5-.5.5-.5-.2-.5-.5Z"/>
        <path class="st27" d="M167.9,219.2c-.2-.3-.4-.5-.6-.7-.2-.2-.7-.3-.7-.3,0,0,.3-.3.6-.3s.3,0,.4.2v-.2s.3,0,.4.3c.1.3,0,.8,0,.8,0,0-.1.2-.2.3h0Z"/>
        <path class="st11" d="M167.9,219c.1-.1.3-.1.5,0,.2.2.2.4.1.5-.1.1-.3.1-.5,0-.2-.2-.2-.4-.1-.5h0Z"/>
      </g>
      <path class="st87" d="M187.6,219.2s.4-.5.6-.8c.2-.2.7-.3.7-.3,0,0-.3-.3-.6-.3s-.3,0-.4.2v-.2s-.3,0-.4.3c-.1.3,0,.8,0,.8,0,0,0,.2.1.3"/>
      <path class="st27" d="M187.6,219.2s.4-.5.6-.8c.2-.2.7-.3.7-.3,0,0-.3-.3-.6-.3s-.3,0-.4.2v-.2s-.3,0-.4.3c-.1.3,0,.8,0,.8,0,.1,0,.2.1.3h0Z"/>
      <path class="st87" d="M187.6,219c-.1-.1-.3-.1-.5,0-.2.2-.2.4-.1.5.1.1.3.1.5,0,.2-.2.2-.4.1-.5"/>
      <g>
        <path class="st11" d="M187.6,219c-.1-.1-.3-.1-.5,0-.2.2-.2.4-.1.5.1.1.3.1.5,0,.2-.2.2-.4.1-.5h0Z"/>
        <path class="st23" d="M178.2,209.3c.5.1.8.6.8,1.2s-.5,1.2-1.2,1.2-1.2-.5-1.2-1.2.4-1,.9-1.2"/>
        <path class="st27" d="M179.1,210.1v.6h-2.5v-.6h.9v-1.4h-.6v-.6h.6v-.6h.6v.6h.6v.6h-.6v1.4h1Z"/>
        <g>
          <path class="st12" d="M177.8,224.7v-1.3M177.4,224.7v-1.3"/>
          <path class="st73" d="M177.1,224.7v-1.3M176.8,224.7v-1.3M176.5,224.7v-1.3M176,224.6v-1.2M176.2,224.6v-1.3"/>
          <path class="st61" d="M175.5,224.6v-1.1M175.8,224.6v-1.2M174.8,224.5v-1M175.1,224.5v-1M175.3,224.6v-1.1"/>
          <path class="st16" d="M174.6,224.5v-1M174.4,224.5v-1M174.2,224.5v-1M173.7,224.4v-.8M173.9,224.5v-.9"/>
          <path class="st28" d="M173.5,224.4v-.7M173.2,224.4v-.7M173,224.3v-.5M172.7,224.3v-.5M172.5,224.2v-.4"/>
          <path class="st12" d="M179.1,224.6v-1.2M178.5,224.7v-1.3M178.1,224.7v-1.3"/>
        </g>
      </g>
      <path class="st75" d="M166.9,231.3h21.6v-6.2h-21.6v6.2Z"/>
      <path class="st15" d="M166.9,231.3h21.6v-6.2h-21.6v6.2Z"/>
      <path class="st81" d="M169.2,235.4c.1,0,.2,0,.4,0h16.2c.2,0,.3,0,.4,0-.6-.2-1-.7-1-1.4s.4-1.2,1-1.4c-.1,0-.3,0-.5,0h-16.2c-.2,0-.3,0-.5,0h0c.6.2.9.8.9,1.4s-.4,1.2-.9,1.4"/>
      <g>
        <path class="st71" d="M169.2,235.4c.1,0,.2,0,.4,0h16.2c.2,0,.3,0,.4,0-.6-.2-1-.7-1-1.4s.4-1.2,1-1.4c-.1,0-.3,0-.5,0h-16.2c-.2,0-.3,0-.5,0h0c.6.2.9.8.9,1.4s-.4,1.2-.9,1.4Z"/>
        <path class="st75" d="M169.6,235.3h16.2c.5,0,1,.4,1,.8s-.4.8-1,.8h-16.2c-.5,0-1-.4-1-.8s.4-.8,1-.8"/>
        <path class="st17" d="M169.6,235.3h16.2c.5,0,1,.4,1,.8s-.4.8-1,.8h-16.2c-.5,0-1-.4-1-.8s.4-.8,1-.8Z"/>
      </g>
      <path class="st81" d="M169.6,231.3h16.2c.5,0,1,.3,1,.7s-.4.7-1,.7h-16.2c-.5,0-1-.3-1-.7s.4-.7,1-.7"/>
      <path class="st17" d="M169.6,231.3h16.2c.5,0,1,.3,1,.7s-.4.7-1,.7h-16.2c-.5,0-1-.3-1-.7s.4-.7,1-.7Z"/>
      <path class="st81" d="M169.2,324.7c0,.2.1.4.1.7,0,1.5-1.2,2.8-2.7,2.8h22.2c-1.5,0-2.7-1.2-2.7-2.8s0-.4,0-.7c-.1,0-.3,0-.4,0h-16.2c-.1,0-.3,0-.4,0"/>
      <path class="st71" d="M169.2,324.7c0,.2.1.4.1.7,0,1.5-1.2,2.8-2.7,2.8h22.2c-1.5,0-2.7-1.2-2.7-2.8s0-.4,0-.7c-.1,0-.3,0-.4,0h-16.2c-.1,0-.3,0-.4,0Z"/>
      <path class="st81" d="M169.6,323.1h16.2c.5,0,1,.4,1,.8s-.4.8-1,.8h-16.2c-.5,0-1-.4-1-.8s.4-.8,1-.8"/>
      <path class="st17" d="M169.6,323.1h16.2c.5,0,1,.4,1,.8s-.4.8-1,.8h-16.2c-.5,0-1-.4-1-.8s.4-.8,1-.8h0Z"/>
      <path class="st75" d="M166.6,334.3h22.2v-6.2h-22.2v6.2Z"/>
      <path class="st15" d="M166.6,334.3h22.2v-6.2h-22.2v6.2Z"/>
      <path class="st90" d="M164.9,301.3c-2.2,1.4-3.7,2.8-3.4,3.5.1.6.8,1.1,1.8,1.9,1.6,1.2,2.5,3.3,1.8,4.3,1.3-1.1,2.1-2.8,2.1-4.7s-.9-3.8-2.3-4.9"/>
      <path class="st20" d="M164.9,301.3c-2.2,1.4-3.7,2.8-3.4,3.5.1.6.8,1.1,1.8,1.9,1.6,1.2,2.5,3.3,1.8,4.3,1.3-1.1,2.1-2.8,2.1-4.7s-.9-3.8-2.3-4.9h0Z"/>
      <path class="st88" d="M169.8,322.1h15.8v-84.1h-15.8v84.1Z"/>
      <path class="st15" d="M181,238.1v83.9M182.8,238.1v83.9M169.8,322.1h15.8v-84.1h-15.8v84.1Z"/>
      <path class="st82" d="M201.7,269.4c-3.4-1.5-9.3-2.7-16-2.9-2.3,0-4.9.3-7.5.7-9.4,1.7-16.6,5.8-16,9.2,0,0,0,.2,0,.3,0,0-3.5-8.7-3.6-9-.6-3.7,7.3-8.3,17.8-10.2,3.3-.6,6.5-.8,9.3-.8,6.7,0,12.5.9,16,2.4v10.4"/>
      <path class="st7" d="M201.7,269.4c-3.4-1.5-9.3-2.7-16-2.9-2.3,0-4.9.3-7.5.7-9.4,1.7-16.6,5.8-16,9.2,0,0,0,.2,0,.3,0,0-3.5-8.7-3.6-9-.6-3.7,7.3-8.3,17.8-10.2,3.3-.6,6.5-.8,9.3-.8,6.7,0,12.5.9,16,2.4v10.4"/>
      <path class="st90" d="M169.8,280c-4.4-.3-7.4-1.6-7.7-3.6-.3-1.6,1.2-3.3,3.8-4.9,1.2.1,2.5.3,3.9.3v8.2"/>
      <path class="st20" d="M169.8,280c-4.4-.3-7.4-1.6-7.7-3.6-.3-1.6,1.2-3.3,3.8-4.9,1.2.1,2.5.3,3.9.3v8.2"/>
      <path class="st90" d="M185.6,273.6c2.7.4,4.8,1.2,5.8,2.1v.2c.6,1.1-1.8,3.4-5.8,6v-8.3"/>
      <path class="st20" d="M185.6,273.6c2.7.4,4.8,1.2,5.8,2.1v.2c.6,1.1-1.8,3.4-5.8,6v-8.3"/>
      <path class="st82" d="M160,296.2c-.4-1.4,3.8-4.1,9.9-6.5,2.8-1.1,5-2.2,7.8-3.5,8.4-4,14.5-8.7,13.8-10.3v-.2c.4.4,1.1,8.7,1.1,8.7.8,1.5-4.9,6.1-12.6,10.1-2.5,1.3-7.7,3.4-10.1,4.3-4.4,1.7-8.8,4.8-8.4,6l-1.5-8.6"/>
      <g>
        <path class="st7" d="M160,296.2c-.4-1.4,3.8-4.1,9.9-6.5,2.8-1.1,5-2.2,7.8-3.5,8.4-4,14.5-8.7,13.8-10.3v-.2c.4.4,1.1,8.7,1.1,8.7.8,1.5-4.9,6.1-12.6,10.1-2.5,1.3-7.7,3.4-10.1,4.3-4.4,1.7-8.8,4.8-8.4,6l-1.5-8.6h0s0,0,0,0Z"/>
        <path class="st64" d="M168.7,265.4c1.9-.8,3.2-1.7,2.6-3.3-.4-1-1.4-1.3-2.9-.7l-2.6,1,2.4,6.4c.3-.1.5-.3.8-.4.3-.1.5-.2.8-.3l-1-2.8h0s0,0,0,0ZM167.6,262.3l.7-.3c.6-.2,1.2,0,1.5.8.2.6.2,1.2-.5,1.6-.2.1-.4.2-.7.3l-1-2.6ZM174.9,259.7c-.3,0-.6.2-.8.2-.3,0-.6,0-.8.1l1.4,6.6,4.2-.9c0-.1-.1-.3-.1-.4,0-.1,0-.3,0-.4-.7.2-1.6.5-2.5.7l-1.2-5.9M183.4,265.4c.8-2.4,1.8-4.7,2.7-7-.2,0-.4,0-.5,0-.2,0-.4,0-.5,0-.5,1.7-1.1,3.4-1.8,5.1-.8-1.6-1.7-3.2-2.4-4.8-.3,0-.7,0-1,.1-.3,0-.7,0-1,0,1.2,2.2,2.4,4.3,3.5,6.6.2,0,.3,0,.5,0,.2,0,.3,0,.5,0M192.3,260.3c.1-.3.3-.6.5-.9-.2-.2-.9-.6-1.8-.7-1.7-.2-2.7.7-2.8,1.8-.2,2.4,3.2,2.2,3.1,3.8,0,.7-.7,1-1.4.9-.8,0-1.4-.6-1.5-1.3h-.2c-.1.4-.3.8-.5,1.2.5.4,1.2.6,1.8.6,1.8.2,3.1-.6,3.2-1.8.2-2.3-3.3-2.4-3.1-3.7,0-.6.5-.9,1.4-.8.6,0,1,.5,1.2,1h.2"/>
      </g>
      <path class="st84" d="M192.8,335.1c-1.5,0-2.8-.3-3.8-.9-1-.5-2.3-.9-3.7-.9s-2.8.3-3.8.9c-1,.6-2.3.9-3.8.9s-2.8-.4-3.8-.9c-1-.5-2.3-.8-3.7-.8s-2.8.3-3.7.9c-1,.6-2.3.9-3.8.9v2.6c1.5,0,2.8-.4,3.8-.9,1-.5,2.3-.9,3.7-.9s2.7.3,3.7.8c1,.6,2.3,1,3.8,1s2.8-.4,3.8-.9c1-.6,2.3-.9,3.8-.9s2.8.3,3.7.9c1,.6,2.3.9,3.8.9v-2.6"/>
      <path class="st37" d="M192.8,335.1c-1.5,0-2.8-.3-3.8-.9-1-.5-2.3-.9-3.7-.9s-2.8.3-3.8.9c-1,.6-2.3.9-3.8.9s-2.8-.4-3.8-.9c-1-.5-2.3-.8-3.7-.8s-2.8.3-3.7.9c-1,.6-2.3.9-3.8.9v2.6c1.5,0,2.8-.4,3.8-.9,1-.5,2.3-.9,3.7-.9s2.7.3,3.7.8c1,.6,2.3,1,3.8,1s2.8-.4,3.8-.9c1-.6,2.3-.9,3.8-.9s2.8.3,3.7.9c1,.6,2.3.9,3.8.9v-2.6s0,0,0,0Z"/>
      <path class="st88" d="M192.8,337.7c-1.5,0-2.8-.3-3.8-.9-1-.5-2.3-.9-3.7-.9s-2.8.3-3.8.9c-1,.6-2.3.9-3.8.9s-2.8-.4-3.8-1c-1-.5-2.3-.8-3.7-.8s-2.8.3-3.7.9c-1,.6-2.3.9-3.8.9v2.5c1.5,0,2.8-.4,3.8-.9,1-.6,2.3-.9,3.7-.9s2.7.3,3.7.8c1,.6,2.3.9,3.8.9s2.8-.4,3.8-.9c1-.5,2.3-.9,3.8-.9s2.8.3,3.7.9c1,.6,2.3.9,3.8.9v-2.5"/>
      <path class="st15" d="M192.8,337.7c-1.5,0-2.8-.3-3.8-.9-1-.5-2.3-.9-3.7-.9s-2.8.3-3.8.9c-1,.6-2.3.9-3.8.9s-2.8-.4-3.8-1c-1-.5-2.3-.8-3.7-.8s-2.8.3-3.7.9c-1,.6-2.3.9-3.8.9v2.5c1.5,0,2.8-.4,3.8-.9,1-.6,2.3-.9,3.7-.9s2.7.3,3.7.8c1,.6,2.3.9,3.8.9s2.8-.4,3.8-.9c1-.5,2.3-.9,3.8-.9s2.8.3,3.7.9c1,.6,2.3.9,3.8.9v-2.5"/>
      <path class="st84" d="M192.8,340.2c-1.5,0-2.8-.3-3.8-.9-1-.5-2.3-.9-3.7-.9s-2.8.3-3.8.9c-1,.6-2.3.9-3.8.9s-2.8-.4-3.8-.9c-1-.5-2.3-.8-3.7-.8s-2.8.3-3.7.9c-1,.6-2.3.9-3.8.9v2.5c1.5,0,2.8-.4,3.8-.9,1-.5,2.3-.9,3.7-.9s2.7.3,3.7.8c1,.6,2.3.9,3.8.9s2.8-.3,3.8-.9c1-.5,2.3-.9,3.8-.9s2.8.3,3.7.9c1,.6,2.3.9,3.8.9v-2.5"/>
      <path class="st37" d="M192.8,340.2c-1.5,0-2.8-.3-3.8-.9-1-.5-2.3-.9-3.7-.9s-2.8.3-3.8.9c-1,.6-2.3.9-3.8.9s-2.8-.4-3.8-.9c-1-.5-2.3-.8-3.7-.8s-2.8.3-3.7.9c-1,.6-2.3.9-3.8.9v2.5c1.5,0,2.8-.4,3.8-.9,1-.5,2.3-.9,3.7-.9s2.7.3,3.7.8c1,.6,2.3.9,3.8.9s2.8-.3,3.8-.9c1-.5,2.3-.9,3.8-.9s2.8.3,3.7.9c1,.6,2.3.9,3.8.9v-2.5"/>
      <path class="st88" d="M192.8,345.3c-1.5,0-2.8-.3-3.8-.9-1-.5-2.3-.9-3.7-.9s-2.8.3-3.8.9c-1,.6-2.3.9-3.8.9s-2.8-.4-3.8-1c-1-.5-2.3-.8-3.7-.8s-2.8.3-3.7.9c-1,.6-2.3.9-3.8.9v-2.5c1.5,0,2.8-.4,3.8-.9,1-.5,2.3-.9,3.7-.9s2.7.3,3.7.8c1,.6,2.3.9,3.8.9s2.8-.3,3.8-.9c1-.5,2.3-.9,3.8-.9s2.8.3,3.7.9c1,.6,2.3.9,3.8.9v2.5"/>
      <path class="st15" d="M192.8,345.3c-1.5,0-2.8-.3-3.8-.9-1-.5-2.3-.9-3.7-.9s-2.8.3-3.8.9c-1,.6-2.3.9-3.8.9s-2.8-.4-3.8-1c-1-.5-2.3-.8-3.7-.8s-2.8.3-3.7.9c-1,.6-2.3.9-3.8.9v-2.5c1.5,0,2.8-.4,3.8-.9,1-.5,2.3-.9,3.7-.9s2.7.3,3.7.8c1,.6,2.3.9,3.8.9s2.8-.3,3.8-.9c1-.5,2.3-.9,3.8-.9s2.8.3,3.7.9c1,.6,2.3.9,3.8.9v2.5"/>
      <path class="st84" d="M192.8,347.9c-1.5,0-2.8-.3-3.8-.9-1-.5-2.3-.9-3.7-.9s-2.8.3-3.8.9c-1,.6-2.3.9-3.8.9s-2.8-.4-3.8-1c-1-.5-2.3-.8-3.7-.8s-2.8.3-3.7.9c-1,.6-2.3.9-3.8.9v-2.5c1.5,0,2.8-.4,3.8-1,1-.5,2.3-.9,3.7-.9s2.7.3,3.7.8c1,.6,2.3.9,3.8.9s2.8-.4,3.8-.9c1-.5,2.3-.9,3.8-.9s2.8.3,3.7.9c1,.6,2.3.9,3.8.9v2.5"/>
      <path class="st37" d="M192.8,347.9c-1.5,0-2.8-.3-3.8-.9-1-.5-2.3-.9-3.7-.9s-2.8.3-3.8.9c-1,.6-2.3.9-3.8.9s-2.8-.4-3.8-1c-1-.5-2.3-.8-3.7-.8s-2.8.3-3.7.9c-1,.6-2.3.9-3.8.9v-2.5c1.5,0,2.8-.4,3.8-1,1-.5,2.3-.9,3.7-.9s2.7.3,3.7.8c1,.6,2.3.9,3.8.9s2.8-.4,3.8-.9c1-.5,2.3-.9,3.8-.9s2.8.3,3.7.9c1,.6,2.3.9,3.8.9v2.5Z"/>
    </g>
    <path class="st88" d="M250.2,349.6c-12.7,0-25.2-3.4-35.8-9-7.8-4.2-12.9-12.7-12.9-22.4v-35.2h97.3v35.2c0,9.7-5.2,18.2-13,22.4-10.6,5.6-22.9,9-35.6,9"/>
    <g>
      <path class="st2" d="M250.2,349.6c-12.7,0-25.2-3.4-35.8-9-7.8-4.2-12.9-12.7-12.9-22.4v-35.2h97.3v35.2c0,9.7-5.2,18.2-13,22.4-10.6,5.6-22.9,9-35.6,9h0Z"/>
      <path class="st82" d="M250,318.1c0,13.9-10.8,25.2-24.3,25.2s-24.4-11.3-24.4-25.2v-35.2h48.6v35.2Z"/>
      <g>
        <g>
          <path class="st54" d="M212,338.9c1.5.9,3.6,2.3,5.8,2.9v-60.2h-5.8v57.2Z"/>
          <path class="st33" d="M201.3,317.6c.1,7.4,2.9,12.9,5.6,16.6v-52.3h-5.5v35.7Z"/>
          <path class="st54" d="M222.9,343.1c2.2.2,3.9.2,5.7,0v-61.5h-5.7v61.5ZM233.6,341.8c2.2-.5,4.7-2,5.8-2.8v-57.4h-5.7v60.2ZM244.7,333.6c2.4-2.3,4.6-7.5,5.4-13.5v-38.5c.1,0-5.6,0-5.6,0v52Z"/>
        </g>
        <path class="st2" d="M250,318.1c0,13.9-10.8,25.2-24.3,25.2s-24.4-11.3-24.4-25.2v-35.2h48.6v35.2Z"/>
      </g>
      <path class="st82" d="M201.4,282.9h48.6v-58.9h-48.6v58.9Z"/>
      <g>
        <path class="st47" d="M211,271.7v-4.3h4.2v-7.6s0-7.6,0-7.6h-2.1c0,0,0-2.3,0-2.3,0-1.2,0-2.9,0-3.8v-1.6c0,0,.5,0,.5,0,.3,0,.9,0,1.5,0h1v-3.8h-1.9v-1.3c0-.7,0-1.7,0-2.2v-1h1.8v.4c0,.5,0,.6.6.6s.6,0,.6-.6v-.4h2.5v.4c.1.5.2.6.7.6s.5-.2.5-.6v-.4h1.7v4.4h-2c0,0,0,1.9,0,1.9v1.8s2.7,0,2.7,0v-9.2h-1.8v-4.4h1.8v.5c0,0-.1.5-.1.5h.3c.2,0,.5,0,.6,0,.3,0,.3,0,.3-.5v-.4h2.4v.4c0,.5.1.7.6.7s.5-.1.6-.7v-.4h1.8v4.4h-1.9v9.2h2.3v-3.7c0,0-1.8,0-1.8,0v-1.8c0-1,0-2,0-2.3v-.5c0,0,.9,0,.9,0h.9s0,.4,0,.4c0,.6.1.7.5.7s.6,0,.6-.6v-.5h.8c.4,0,.9,0,1.1,0h.4c0,0,0,1.1,0,1.1h.5c.6,0,.7,0,.8-.6,0-.4.1-.4,1.1-.5h.6c0,0,0,4.4,0,4.4h-.4c-.2,0-.7.1-1,.1h-.5v3.7h1.1c.6,0,1.4.1,1.7.1h.6v1.9c0,1.1,0,2.8,0,3.8v1.8c0,0-.9,0-.9,0h-1v15.1h2s2,0,2,0v8.6h-29.4v-4.3Z"/>
        <path class="st21" d="M215.5,252v15.8h-4.1v8.1h28.5v-8.2h-3.9v-15.7h-20.6Z"/>
        <path class="st27" d="M211.4,275.9h28.2M211.4,273.8h28.5M211.4,271.9h28.5M211.4,269.9h28.5M211.4,267.7h28.5M215.6,265.6h20.5M215.5,263.5h20.6M215.5,261.8h20.6M215.5,259.8h20.6M215.5,257.9h20.6"/>
        <path class="st68" d="M215.5,255.9h20.6"/>
        <path class="st27" d="M231.8,254v1.9M215.5,253.9h20.6"/>
        <path class="st68" d="M215.5,275.8v-2"/>
        <path class="st27" d="M215.5,271.9v-2M213.7,271.9v2"/>
        <path class="st68" d="M217.5,273.8v-2"/>
        <path class="st27" d="M219.6,267.7v-2.1M219.7,263.5v-1.7M217.5,269.9v-2.2"/>
        <path class="st68" d="M213.7,269.9v-2.2"/>
        <path class="st27" d="M217.5,263.5v2M221.6,263.5v2M225.6,263.6v2M223.6,263.6v-1.8M225.7,259.8v2M223.6,253.9v2M225.7,252v2M221.6,252v2M217.7,252v2M236,275.8v-2M236,271.9v-2M237.8,271.9v2M233.8,273.8v-2M231.8,267.7v-2.1M231.8,263.5v-1.8"/>
        <path class="st68" d="M233.8,269.9v-2.2"/>
        <path class="st27" d="M237.8,269.9v-2.2"/>
        <path class="st68" d="M233.8,263.5v2.1"/>
        <path class="st27" d="M229.7,263.5v2.1M227.8,263.6v-1.8M227.8,257.9v2"/>
        <path class="st68" d="M225.6,255.9v2"/>
        <g>
          <path class="st27" d="M227.8,253.9v2M229.7,252v1.8M233.8,252v1.8M223.6,259.8v-2"/>
          <g>
            <path class="st27" d="M229.7,275.8v-5.3c0-1-.4-4.1-4.2-4.1s-4,3-4,4.1v5.3h8.2Z"/>
            <path class="st27" d="M227.8,271.9h4s0-2,0-2l-1.4-2.2-2.8,2.1c.3.7.1,1.6.1,2.1h0ZM226.8,268.7l.9-3.1h-4.1s.9,3.1.9,3.1c.7-.2,1.5-.1,2.3,0h0ZM229.8,261.8v-4.6c0-1.3.7-2.3,2-2.3s2,1.1,2,2.3v4.6h-4Z"/>
            <path class="st27" d="M219.6,273.8h3.9s0,0,0,0v1.9s0,0,0,0h-3.9s0,0,0,0v-1.9s0,0,0,0Z"/>
            <path class="st27" d="M227.8,273.8h4v1.9h-4v-1.9ZM223.6,271.8h-3.9s0-2,0-2l1.2-2.1,2.8,2c-.2.8,0,.8,0,2.1h0Z"/>
          </g>
          <path class="st27" d="M219.6,254v1.9"/>
          <path class="st27" d="M217.5,261.8v-4.7c0-1.3.7-2.3,2.1-2.3s2.1,1.1,2.1,2.3v4.7h-4.1Z"/>
        </g>
        <path class="st50" d="M216.6,240.6h4.1v11.6h-4.1v-11.6ZM223.7,235.4h4.1v16.8h-4.1v-16.8ZM230.4,240.6h4.1v11.6h-4.1v-11.6Z"/>
        <g>
          <path class="st27" d="M223.7,245.6h4M223.7,247.3h4M230.4,241.7h4M230.4,243.9h4M230.4,245.6h4M230.5,247.4h4M232.5,241.7v-1.1M232.5,245.5v-1.6M232.4,249v-1.6M216.6,245.7h4M216.6,247.5h4"/>
          <path class="st63" d="M213.5,252.2v-7.3h3.1s.9.6.9.6v3.5s2.6,0,2.6,0v-3.7s.8-.6.8-.6h2.6s.9.7.9.7v3.5s2.7,0,2.7,0v-3.5s.7-.8.7-.8h2.6s.8.7.8.7v3.4c.1,0,2.5,0,2.5,0v-3.4s.8-.8.8-.8h3.4v7.3h-24.4Z"/>
          <path class="st27" d="M213.5,250.1h24.4M215.5,250.1v2.1M219.6,250.1v2.1"/>
        </g>
        <path class="st68" d="M223.7,250.1v2.1"/>
        <path class="st27" d="M227.8,250.1v2.1M231.8,250.1v2.1M236,250.1v2.1M217.5,248v2.1M217.5,246h-3.9M217.5,248.2h-3.9M224.4,246h-4.3M231.2,246h-4.2M238,246h-4.2M224.4,248.2h-4.3M231.3,248.2h-4.2M237.9,248.2h-4.2M215.5,246.1v2.1M221.6,248.1v2M223.7,246v2.1M227.8,246v2.1M236,245.9v2.2M221.6,244.9v1.2"/>
        <path class="st68" d="M225.7,249.1v1"/>
        <path class="st27" d="M229.7,248.2v1.9M229.7,244.8v1.2"/>
        <path class="st68" d="M233.8,248.1v1.9"/>
        <g>
          <path class="st69" d="M227.8,275.8v-4.4c0-.7.2-3-2.2-2.8-2.4-.1-2,2-2,2.8v4.4h4.2Z"/>
          <path class="st24" d="M232.9,261v-3.5c0-.9-.4-1.8-1.1-1.8s-1.1.9-1.1,1.8v3.5h2.2ZM220.7,261v-3.5c0-.9-.4-1.8-1.1-1.8s-1.1.9-1.1,1.8v3.5h2.2Z"/>
        </g>
        <path class="st27" d="M223.7,243.9h4M223.7,241.8h4M223.7,240h4M223.7,238.1h4M223.7,236.4h4.1M225.7,238.1v-1.7"/>
        <path class="st68" d="M225.7,241.7v-1.7"/>
        <path class="st27" d="M225.7,245.7v-1.7M225.7,249v-1.7M216.6,241.8h4M216.6,244h4M218.6,241.7v-1.1M218.6,245.6v-1.6"/>
        <g>
          <path class="st68" d="M218.6,249.1v-1.6"/>
          <g>
            <path class="st50" d="M221.8,231.1v4.2s7.9,0,7.9,0v-4.2s-1.4,0-1.4,0v1c0,0-1.5,0-1.5,0v-1h-2v1h-1.5v-1.1s-1.4,0-1.4,0Z"/>
            <path class="st6" d="M221.8,233.6h7.9M225.7,235.3v-1.7"/>
            <path class="st50" d="M214.7,236.5v4.2s7.9,0,7.9,0v-4.2s-1.4,0-1.4,0v1c0,0-1.5,0-1.5,0v-1h-2v1h-1.5v-1.1s-1.4,0-1.4,0Z"/>
            <path class="st6" d="M214.7,239h7.9M218.6,240.7v-1.7"/>
            <path class="st50" d="M228.7,236.5v4.2s7.9,0,7.9,0v-4.2s-1.4,0-1.4,0v1c0,0-1.5,0-1.5,0v-1h-2v1h-1.5v-1.1s-1.4,0-1.4,0Z"/>
            <path class="st6" d="M228.7,238.9h7.9M232.5,240.7v-1.7"/>
          </g>
        </g>
        <g>
          <path class="st2" d="M201.4,282.9h48.6v-58.9h-48.6v58.9Z"/>
          <path class="st56" d="M283.6,297.6l-1.7-.8-3.1,3.9,1.1,1.6,3.8-4.7ZM285,298.7l1,1.6-3.1,3.9-1.7-.8,3.8-4.7Z"/>
        </g>
        <path class="st41" d="M298.8,282.9v35.2c0,13.9-10.9,25.2-24.4,25.2s-24.4-11.3-24.4-25.2v-35.2h48.8Z"/>
        <g>
          <path class="st3" d="M257.1,286.5c-1.6,0-2.8,1.3-2.8,2.9s.8,2.4,1.9,2.8v4.6l-1.8.6v5l1.8.6v-1.6h0v-2.9h1.7v-6.1c0,0,.2,0,.3,0l5.5,6.8-1,1.7,3.2,3.8,1.7-.8,4.4,5.4c0,.1-.1.3-.2.4h-2.9l-.5-1.9h-4.9l-.5,1.9h-3.3c-.3-.9-.9-1.6-1.8-1.9v-6.2h-1.7v1.6h0v4.6c-.9.3-1.7,1.1-1.9,2.1,0,0,0,0,0,0,0,.2,0,.4,0,.6,0,1.3.8,2.4,2,2.8v3l-1.8.7.3,5,1.8.4c.2,1.4.6,2.7,1.2,4v.2c-1.2,1.2-1,3.1.2,4.1.8.7,1.8.8,2.7.6.8,1,1.7,1.8,2.6,2.6l-.4,2c1.3,1,2.7,1.8,4.2,2.4l1.4-1.4c1.1.4,2.3.7,3.5.9.3,1.3,1.4,2.3,2.8,2.3s2.5-1,2.8-2.3c1.1-.2,2.2-.5,3.3-.9h0c.5-.2.9-.4,1.4-.6l-.8-1.6c.9-.4,1.7-.9,2.5-1.4l.8,1.6c-.8.5-1.6,1-2.5,1.4-.5.2-.9.4-1.4.6l1.3,1.4c1.5-.6,2.9-1.4,4.2-2.4l-.4-2c.9-.8,1.8-1.7,2.6-2.6.9.3,1.9.1,2.7-.6,1.2-1,1.3-2.9.3-4.1l-.2-.2c.5-1.3.9-2.6,1.2-4l1.8-.4.3-5-1.8-.7v-3c1.1-.4,2-1.5,2-2.8s0-.4,0-.6c0,0,0,0,0,0-.2-1-1-1.8-1.9-2.1v-4.6s1.8-.6,1.8-.6v-5l-1.8-.6v-4.6c1.1-.4,2-1.5,2-2.8s-1.3-2.9-2.8-2.9c-1.3,0-2.3.9-2.7,2h-4.8v1.8h-2.9v-1.8h-4.3c-.4-1.2-1.4-2-2.7-2s-2.3.9-2.7,2h-4.3v1.8h-2.9v-1.8h-4.8c-.4-1.2-1.4-2-2.7-2h0Z"/>
          <path class="st26" d="M263.6,286.6l-.5,1.9h5.9l-.5-1.9h-4.9ZM280.5,286.6l-.5,1.9h5.9l-.5-1.9h-4.9ZM257.1,288.1c.7,0,1.2.6,1.2,1.3s-.6,1.3-1.2,1.3-1.2-.6-1.2-1.3.6-1.3,1.2-1.3h0Z"/>
          <path class="st30" d="M259.9,290.3h3.2l.5,1.9h4.9l.5-1.9h2.8c.3.9,1,1.6,1.8,1.9v2.1l-1.8.6v5l1.8.6v7c0,0-.2,0-.3.1l-4.3-5.3,1.1-1.6-3.2-3.8-1.7.8-5.6-6.7c.1-.2.2-.4.3-.7Z"/>
          <path class="st30" d="M277.1,290.3h2.9l.5,1.9h4.9l.5-1.9h3.2c0,.1.1.2.2.3l-5.6,6.9-1.7-.8-3.1,3.8,1.1,1.6,1-1.2,1.8-2.3,1.4,1.2-2.8,3.5,1.7.8,3.2-3.8-1.1-1.6,5.5-6.8c.1,0,.2.1.4.2v4.6l-1.8.6v5l1.8.6v4.6c-.9.3-1.5,1-1.8,1.9h-3.2l-.5-1.9h-4.9l-.5,1.9h-2.7c0-.3-.1-.5-.3-.7l4.2-5.2,1-1.3-1.3-1.1-5.2,6.5c0,0-.2,0-.3,0v-8.6h-1.7v-2.9h1.8v4.6l1.8-.6v-5l-1.8-.6v-2.2c.8-.3,1.5-1,1.7-1.9h0Z"/>
          <path class="st26" d="M258,296.7v6.1l1.8-.6v-5l-1.8-.6Z"/>
          <path class="st30" d="M290.9,298.3h1.8v2.9h-1.8v-2.9ZM266.1,298.9l1.8,2.2-1.3,1.2-1.9-2.3,1.4-1.1Z"/>
          <path class="st26" d="M257.1,309c.5,0,.9.3,1.1.6,0,0,0,0,0,0,0,.2.1.4.1.6,0,.7-.5,1.3-1.2,1.3s-1.2-.6-1.2-1.3,0-.4.1-.5c0,0,0,0,0,0,.2-.4.6-.7,1.1-.7ZM291.8,309c.5,0,.9.3,1.1.7h0c0,.2.1.3.1.5,0,.7-.5,1.3-1.2,1.3s-1.2-.6-1.2-1.3,0-.4.1-.6c.2-.4.6-.7,1.1-.7h0Z"/>
          <path class="st30" d="M264.5,309.4h3v1.7h4.4c0,.2.1.4.2.5l-4.1,5-1.7-.8-3.2,3.8,1.1,1.6-3.4,4.1c-.5-.2-1-.3-1.5-.2-.4-1.1-.7-2.2-.9-3.3,0-.5-.2-1-.2-1.5h-1.8c0-.5,0-1.1,0-1.6v-1.3h1.8v1.3c0,.6,0,1.1,0,1.6,0,.5.1,1,.2,1.5l1.8-.6s-.2-3.4-.2-2.5c0,.7,0-2.5,0-2.5l-1.8-.5v-2.9c.8-.3,1.4-1,1.7-1.9h4.8v-1.7ZM281.5,309.4h2.9v1.7h4.8c.3.9.9,1.6,1.8,1.9v2.9l-1.8.5s0,3.2,0,2.5c0-.8-.2,2.5-.2,2.5l1.8.6c-.2,1.1-.5,2.2-1,3.3-.5,0-1,0-1.5.2l-3.4-4.1,1-1.6-3.2-3.9-1.7.8-3.9-4.9c.1-.2.2-.4.3-.6h4.3v-1.8h0Z"/>
          <g>
            <g>
              <path class="st3" d="M292.6,317.5v-4.5c1.1-.4,2-1.5,2-2.8s-.8-2.4-2-2.8v-6.2s-1.7,0-1.7,0v6.2c-.9.3-1.5,1-1.8,1.9h-4.7v1.8h4.8c.3.9.9,1.5,1.8,1.8v4.6s1.8,0,1.8,0h0ZM292.6,292.2v6.1h-1.8v-6.1c-.1,0-.3-.1-.4-.2l-6.5,8-1.3-1.2,6.6-8.1c0-.1-.1-.2-.2-.4h-4.8v-1.8h4.8c.4-1.2,1.4-2,2.7-2s2.8,1.3,2.8,2.9-.8,2.4-2,2.8h0ZM275.4,292.1v3.8h-1.8v-3.7c-.9-.3-1.6-1-1.8-1.9h-4.3v-1.8h4.3c.4-1.2,1.4-2,2.7-2s2.3.8,2.7,2h4.4v1.8h-4.4c-.3.9-.9,1.6-1.7,1.9h0ZM283.4,322.5l-1.7.8-3.2-3.8,1-1.6,3.9,4.7Z"/>
              <path class="st3" d="M269,290.3l-.5,1.9h-4.9l-.5-1.9h5.9ZM269,288.5l-.5-1.9h-4.9l-.5,1.9h5.9Z"/>
              <path class="st3" d="M265.4,322.5l1.7.8,3.2-3.8-1-1.6-3.9,4.7ZM264.1,321.3l-1-1.6,3.2-3.8,1.7.8-3.9,4.7Z"/>
              <path class="st3" d="M265.3,332.9l-.9,1.6c-1.5-1-2.8-2.2-3.9-3.6-.9.3-1.9.1-2.7-.6-1.2-1-1.3-2.9-.3-4.1v-.2c-.6-1.8-1.1-3.7-1.2-5.6h1.8c.1,1.7.5,3.3,1.1,4.8.5,0,1,0,1.5.2l4.4-5.3,1.3,1.2-4.4,5.3c.6,1,.6,2.3-.1,3.2,1,1.2,2.1,2.2,3.3,3.1h0Z"/>
              <path class="st3" d="M264,331.9c1.5,1.3,3.3,2.4,5.2,3l.4-1.9c-1.6-.5-3-1.3-4.3-2.4l-1.3,1.3ZM263.1,333.5c1.5,1.3,3.3,2.3,5.2,3l-1.4,1.4c-1.5-.6-2.9-1.4-4.3-2.4l.4-2Z"/>
              <path class="st3" d="M256.2,317.5v-4.5c-1.1-.4-2-1.5-2-2.8s.8-2.4,2-2.8v-6.2s1.7,0,1.7,0v6.2c.9.3,1.5,1,1.8,1.9h4.7v1.8h-4.8c-.3.9-.9,1.5-1.8,1.8v4.6s-1.8,0-1.8,0"/>
              <path class="st3" d="M256.5,322.1l-1.8-.4-.3-5,1.8-.6v2.9c0,1.1,0,2.2.3,3.2h0ZM258,315.8l1.8.5s0,3.2,0,2.5c0-.8.2,2.5.2,2.5l-1.8.7c-.2-1-.2-2.1-.2-3.2v-3h0ZM256.2,296.7l-1.8.6v5l1.8.5v-6.1ZM258,296.7l1.8.6v5l-1.8.5v-6.1ZM263.1,309.3l.5-1.9h4.9l.5,1.9h-5.9Z"/>
            </g>
            <path class="st22" d="M263.1,311.1l.5,1.9h4.9l.5-1.9h-5.9Z"/>
            <g>
              <path class="st3" d="M277.1,335.6c1.4-.2,2.7-.7,3.9-1.2l.9,1.6c-1.5.7-3,1.2-4.7,1.4-.3,1.3-1.4,2.3-2.8,2.3s-2.5-1-2.8-2.3c-1.7-.3-3.4-.7-4.9-1.5l.9-1.6c1.3.6,2.7,1,4.2,1.2.3-.7.9-1.3,1.6-1.6v-7.9h1.8v7.9c.8.3,1.4.8,1.8,1.6h0Z"/>
              <path class="st3" d="M284.9,331.9c-1.5,1.3-3.3,2.4-5.2,3l-.4-1.9c1.6-.5,3-1.3,4.3-2.4l1.3,1.3ZM285.8,333.5c-1.6,1.3-3.3,2.3-5.2,3l1.4,1.4c1.5-.6,2.9-1.4,4.3-2.4l-.4-2ZM275.4,327.7l1.8-.6v-5l-1.8-.5v6.1ZM273.6,327.7l-1.8-.6v-5l1.8-.5v6.1Z"/>
              <path class="st3" d="M280,290.3l.5,1.9h4.9l.5-1.9h-5.9ZM280,288.5l.5-1.9h4.9l.5,1.9h-5.9Z"/>
            </g>
          </g>
          <path class="st3" d="M263.1,311.2l.5,1.9h4.9l.5-1.9h-5.9Z"/>
          <path class="st22" d="M279.9,311.2l.5,1.9h4.9l.5-1.9h-5.9Z"/>
          <g>
            <path class="st30" d="M273.4,312.9c0,0,.1,0,.2,0v8.6l-1.8.6v5l1.8.6v6.4c-.7.3-1.3.8-1.6,1.6-1-.1-1.9-.4-2.8-.7l.4-1.9c-1.6-.5-3-1.3-4.3-2.4l-1.3,1.3c.4.3.8.6,1.2.9-.4-.3-.8-.6-1.2-.9-.7-.6-1.4-1.3-2-2,.7-1,.7-2.2.1-3.2l3.4-4.1,1.7.8,3.2-3.9-1-1.6,4.1-5ZM275.6,312.9l5,6.1,1.3-1.1,1.8,2.2-1.3,1.2-1.8-2.3-1-1.2-1.1,1.6,3.2,3.8,1.7-.8,3.4,4.1c-.6,1-.6,2.3.1,3.2-.6.7-1.3,1.4-2,2-.4.3-.8.6-1.2.9.4-.3.8-.6,1.2-.9l-1.3-1.3c-1.3,1-2.7,1.8-4.3,2.4l.4,1.9c-.8.3-1.6.5-2.5.7-.3-.8-1-1.3-1.8-1.6v-6.3l1.8-.6v-5l-1.8-.6v-8.6c0,0,.1,0,.2-.1ZM292.6,317.5v1.3c0,.6,0,1.1,0,1.6h-1.8c0-.5,0-1.1,0-1.6v-1.3h1.8Z"/>
            <path class="st30" d="M266.9,317.9l1.4,1.1-1.9,2.3-1.3-1.2,1.8-2.2ZM273.6,323.2h1.8v2.9h-1.8v-2.9ZM265.3,332.9c.8.5,1.6,1,2.5,1.4l-.9,1.6c-.9-.4-1.7-.9-2.5-1.4l.8-1.6Z"/>
          </g>
          <path class="st3" d="M272.1,311.7c0-.2-.2-.3-.2-.5h-4.4v-1.8h4.4c0-.2.1-.3.2-.4l-5.4-6.6,1.3-1.2,5.4,6.5c0,0,.2,0,.3-.1v-8.6h1.8v8.6c0,0,.2,0,.3,0l5.2-6.5,1.3,1.2-5.2,6.4c.1.2.2.5.3.7h4.3v1.8h-4.3c0,.2-.2.4-.3.6l5,6.2-1.3,1.2-4.9-6.2c0,0-.1,0-.2.1v10.2h-1.8v-10.2c0,0-.1,0-.2,0l-5.1,6.2-1.3-1.2,5.1-6.2"/>
          <path class="st30" d="M258.6,327.3c.4-.5,1.2-.6,1.7-.1.5.4.6,1.2.1,1.8-.4.5-1.2.6-1.7.1-.5-.5-.6-1.2-.1-1.8h0ZM255.9,310.2c0-.7.5-1.3,1.2-1.3s1.2.6,1.2,1.3-.5,1.2-1.2,1.2-1.2-.6-1.2-1.2Z"/>
          <path class="st3" d="M283.6,332.9l.9,1.6c1.5-1,2.8-2.2,3.9-3.6.9.3,1.9.1,2.7-.6,1.2-1,1.3-2.9.3-4.1v-.2c.6-1.8,1.1-3.7,1.2-5.6h-1.8c-.1,1.7-.5,3.3-1.1,4.8-.5,0-1,0-1.5.2l-4.4-5.3-1.3,1.2,4.4,5.3c-.6,1-.6,2.3.1,3.2-1,1.2-2.1,2.2-3.3,3.1h0Z"/>
          <path class="st30" d="M290.1,327.3c-.4-.5-1.2-.6-1.7-.1-.5.4-.6,1.2-.1,1.8.4.5,1.2.6,1.7.1.5-.5.6-1.2.1-1.8Z"/>
          <path class="st3" d="M292.4,322.1l1.8-.4.3-5-1.8-.6v2.9c0,1.1,0,2.2-.3,3.2h0ZM290.9,315.8l-1.8.5s0,3.2,0,2.5c0-.8-.2,2.5-.2,2.5l1.8.7c.2-1,.2-2.1.2-3.2v-3M290.9,296.7l-1.8.6v5l1.8.5v-6.1ZM292.6,296.7l1.8.6v5l-1.8.5v-6.1ZM284.7,321.3l1-1.6-3.2-3.8-1.7.8,3.9,4.7Z"/>
          <path class="st56" d="M255.9,289.4c0-.7.5-1.2,1.2-1.2s1.2.6,1.2,1.2-.5,1.2-1.2,1.2-1.2-.6-1.2-1.2h0Z"/>
          <path class="st30" d="M290.6,310.2c0-.7.5-1.3,1.2-1.3s1.2.6,1.2,1.3-.5,1.2-1.2,1.2-1.2-.6-1.2-1.2Z"/>
          <path class="st3" d="M285.8,309.3l-.5-1.9h-4.9l-.5,1.9h5.9ZM285.8,311.1l-.5,1.9h-4.9l-.5-1.9h5.9Z"/>
          <path class="st30" d="M273.3,336.8c0-.7.5-1.3,1.2-1.3s1.2.6,1.2,1.3-.5,1.2-1.2,1.2-1.2-.6-1.2-1.2ZM290.6,289.4c0-.7.5-1.2,1.2-1.2s1.2.6,1.2,1.2-.5,1.2-1.2,1.2-1.2-.6-1.2-1.2ZM273.2,289.4c0-.7.5-1.2,1.2-1.2s1.2.6,1.2,1.2-.5,1.2-1.2,1.2-1.2-.6-1.2-1.2Z"/>
          <g>
            <path class="st3" d="M258.2,292.1l6.5,8,1.3-1.2-6.6-7.9c.1-.2.2-.4.3-.7h4.8v-1.8h-4.8c-.4-1.2-1.4-2-2.7-2s-2.8,1.3-2.8,2.9.8,2.4,1.9,2.8v6.1s1.7,0,1.7,0v-6.1c0,0,.2,0,.3,0Z"/>
            <path class="st3" d="M265.1,297.7l1.7-.8,3.2,3.8-1,1.6-3.9-4.7ZM263.8,298.9l-1,1.6,3.2,3.8,1.7-.8-3.9-4.7Z"/>
          </g>
          <path class="st3" d="M273.6,294.4l-1.8.6v5l1.8.5v-6.1ZM275.3,294.4l1.8.6v5l-1.8.5v-6.1Z"/>
          <path class="st51" d="M271.7,310.3c0-1.6,1.3-2.9,2.8-2.9s2.8,1.3,2.8,2.9-1.3,2.9-2.8,2.9-2.8-1.3-2.8-2.9"/>
        </g>
        <path class="st40" d="M253.1,282.8h4.2v-1.1h-4.2v1.1Z"/>
        <path class="st68" d="M253.1,282.8h4.2v-1.1h-4.2v1.1Z"/>
        <g>
          <path class="st55" d="M252.5,333.9c2,.7,3.1,2.3,3.1,4.2s-2.2,4.4-5.1,4.4-5.3-1.9-5.3-4.4,1-4,3-4.2c0,0,0-.2-.2-.5-.2-.2-.6-.7-.6-.7,0,0,.8-.2,1.2,0,.4.2.7.5.7.5,0,0,.2-.5.5-.8.3-.3.7-.6.7-.6,0,0,.4.4.6.7.1.3.2.6.2.6,0,0,.4-.4.8-.5.4-.2.8-.3.8-.3,0,0-.1.5-.2.7,0,.2-.1.4-.2.5v.2c0,0,0,0,0,0Z"/>
          <path class="st67" d="M250,345.3s-3.9-2.8-5.5-3.2c-2.1-.5-4.5,0-5.6-.2,0,0,1.2,1,1.8,1.6.5.6,2.3,1.7,3.3,2,3.1.9,6-.2,6-.2M251.1,345.6s2.5-2.8,5.1-3.2c3.1-.5,5.1.3,6.2.6,0,0-1,.5-1.5.9-.5.4-1.9,1.7-4,1.7-2.1,0-4.4-.2-4.8-.2-.3,0-.6,0-.9.1"/>
          <path class="st58" d="M249.9,341.5c-1-1-1.1-1.8-1.1-3.4s.6-2.9,1.6-3.9c1,1,1.6,2.4,1.6,3.9,0,1.5,0,2.3-1,3.3l-.5.4-.5-.4Z"/>
          <path class="st67" d="M249.4,347.6s.6-1.4.7-2.8c0-1.2-.1-2.3-.1-2.3h.8s.4,1.2.4,2.3-.2,2.5-.2,2.5c0,0-.5,0-.7.2-.2,0-.6.3-.6.3h-.3c0,0,.1-.3.1-.3Z"/>
        </g>
      </g>
      <path class="st88" d="M250,282.9h48.8v-58.9h-48.8v58.9Z"/>
      <path class="st2" d="M250,282.9h48.8v-58.9h-48.8v58.9Z"/>
      <g>
        <path class="st11" d="M280.4,275.2s-.6.7-.4,1.2c.2.6.6,1.2.6,1.2,0,0,0-.8.2-1.1.4-.3,1-.4,1-.4,0,0-.5-.5-.7-.6-.2,0-.8-.4-.8-.4h0ZM283.4,276.2s-.3.8.3,1.4c.6.5,1.1.6,1.1.6,0,0-.4-.9-.3-1.3.1-.5.5-.8.5-.8,0,0-.7-.3-.8-.2-.1,0-.7.3-.7.3h0ZM275,239.5v-.7c0,0,.1-.4.1-.4,0,0-1.6.1-2.4-.1-.8-.3-1.6-.6-2.3-1.3-.8-.7-1.1-1.2-1.6-1.2-1.3-.2-2.3.4-2.3.4,0,0,1,.4,1.7,1.4.7,1,1.5,1.5,1.9,1.6.6.2,2.6,0,3.1,0,.5,0,1.8.2,1.8.2h0s0,0,0,0Z"/>
        <path class="st70" d="M272.2,240.4l.3-.6.3.5h-.6M273,240.4l.4-.6.4.5h-.8M272.6,236.9l.8.3-.7.4v-.7M273.6,237.2l.7.2-.6.5v-.7Z"/>
        <path class="st8" d="M282.3,237.1s0,.8,0,1.5c0,.7-.2,1.3-.1,1.7.1.4.2.7.3,1,.1.3.2,1,.2,1,0,0-.4-.3-.7-.6-.2-.2-.4-.3-.6-.5,0,0,0,.8.1,1.1,0,.3.2.9.5,1.3.3.4.8.9,1,1.4.2.5.1,1.5.1,1.5,0,0-.5-.8-.8-.9-.4-.1-1.2-.7-1.2-.7,0,0,.8.8.8,1.6s-.3,1.7-.3,1.7c0,0-.3-.7-.8-1.2-.5-.5-1.1-.9-1.1-.9,0,0,.5,1.2.5,2.1s-.1,2.6-.1,2.6c0,0-.4-.7-.8-1-.4-.3-.8-.6-1-.8-.1-.2.5.7.5,1.2,0,.5.3,2.5,1.9,5,.9,1.4,2.3,4,5.3,3.1,3-.8,1.9-5.2,1.3-7.3-.6-2.1-.9-4.3-.9-5.1,0-.8.6-3.1.5-3.6,0-.4-.2-2.1.1-3.5.4-1.4.7-2,.9-2.5.2-.6.4-.9.5-1.4,0-.5,0-1.5,0-1.5,0,0,.6,1.1.7,1.5.1.4.1,1.6.1,1.6,0,0,.1-1.2.9-1.8.8-.6,1.8-1.2,2.1-1.5.2-.3.3-.5.3-.5,0,0,0,2-.6,2.8-.3.5-1.7,2.2-1.7,2.2,0,0,.7-.3,1.2-.3.5,0,.8,0,.8,0,0,0-.6.5-1.4,1.7-.8,1.2-.5,1.3-1,2.3-.6,1-1,1-1.7,1.7-1.1.9-.5,4.6-.3,5.1.1.5,2,5,2,6.1,0,1.1.2,3.5-1.5,5.1-1.1,1-3,1-3.4,1.3-.4.3-1.3,1.2-1.3,3.1s.6,2.2,1.1,2.6c.5.5,1.1.2,1.3.6.1.4.2.6.4.8.2.2.4.5.3.9,0,.4-.9,1.3-1.2,2-.3.6-.8,2.4-.8,2.6s0,1.1.2,1.5c0,0,.9,1.1.3,1.3-.4.1-.8-.3-.9-.2-.5.1-.8.5-.9.5-.3,0-.3-.3-.4-.8,0-.5,0-.8-.2-.8s-.3.2-.4.5c0,.3,0,.9-.3.9s-.6-.5-.8-.6c-.2-.1-.8-.2-.8-.5,0-.3.4-.9.7-1,.4-.1.7-.3.5-.5-.2-.2-.5-.2-.7,0-.2.2-.8,0-.7-.3,0-.3.1-.7,0-.9,0-.2-.5-.5.1-.9.6-.3.8.3,1.4.2.6-.1.8-.3,1.1-.7.2-.4.2-1.1-.2-1.6-.4-.5-.8-.5-.9-.8-.1-.3-.3-1-.3-1,0,0,.1,1.3,0,1.4,0,.2,0,.9,0,.9,0,0-.4-.5-.7-.8-.3-.4-.6-1.4-.6-1.4,0,0,0,1,0,1.4s.4.8.3.9c-.1.1-.8-.8-1-.9-.2-.1-.7-.6-1-1.1-.2-.5-.4-1.2-.5-1.5,0-.3-.2-1.4,0-1.7.2-.4.5-1.2.5-1.2h-1.4c-.7,0-1.3-.3-1.5.3-.3.5-.1,1.6.2,3,.4,1.4.6,2.1.5,2.4-.1.3-.6.8-.7.9-.2.1-.7,0-.9,0-.2-.1-.6-.3-1.2-.3s-1.1,0-1.3,0c-.2,0-.8-.4-1.1-.3-.3,0-.8.3-.6.8.2.7-.2.8-.5.8-.3,0-.5-.1-.9-.3-.3-.1-.9,0-.8-.4,0-.4.2-.5.4-.8.2-.3.2-.5,0-.6-.2,0-.5,0-.7.1-.2.2-.5.5-.7.4-.2-.1-.4-.5-.4-1.1s-.7-1.3,0-1.2c.6,0,1.4.5,1.5.1.1-.4,0-.5-.3-.8-.3-.3-.7-.4-.3-.8.4-.4.5-.4.7-.6.2-.2.4-.8.7-.7.6.3,0,.8.6,1.5.6.7,1,1,2,.9,1-.1,1.3-.3,1.3-.6s0-.9-.1-1.1c0-.2.1-1,.1-1,0,0-.5.3-.6.6-.1.3-.4.8-.4.8,0,0-.1-.6,0-1.2,0-.3.1-.8.1-.9,0-.3-.2-1-.2-1,0,0-.2.8-.3,1-.1.2-.2,1.1-.2,1.1,0,0-.6-.6-.5-1.6.1-.8-.1-1.8.1-2.2.2-.3.7-1.7,2-1.8,1.3,0,2.2,0,2.7,0,.4,0,2-.3,2-.3,0,0-2.9-1.6-3.5-2.1-.7-.5-1.7-1.7-2-2.3-.3-.6-.6-1.7-.6-1.7,0,0-.5,0-1,.3-.5.3-.9.7-1.2,1-.3.3-.7,1.1-.7,1.1,0,0,0-1,0-1.3s0-.9,0-.9c0,0-.3,1.4-1,1.9-.7.5-1.4,1.2-1.4,1.2,0,0,0-.8,0-.9s.2-1,.2-1c0,0-.5.8-1.2.9-.7.1-1.8.1-1.8.6,0,.5.2,1.1,0,1.5-.2.3-.5.6-.5.6,0,0-.4-.4-.8-.4-.4,0-.7.2-.7.2,0,0-.3-.4-.2-.7.1-.3.7-.7.5-.9-.1-.2-.6,0-.8.2-.3.1-.8.3-.8-.2,0-.5.2-.8,0-1.1-.1-.3,0-.6.2-.6.2,0,1.1,0,1.2-.2,0-.2-.2-.5-.8-.7-.6-.1-.8-.5-.5-.8s.4-.4.5-.7.2-.8.7-.5c.5.3.4.9,1,1.1.5.2,1.8,0,2.1-.3.3-.2,1.2-.9,1.5-1.1.3-.2,1.6-1.2,1.6-1.2,0,0-.7-.6-1-.8-.3-.3-.8-1-1-1.1-.2-.1-1.5-.6-1.9-.7-.4,0-1.7-.5-1.7-.5,0,0,.6-.2.8-.4s.6-.6.9-.6c.2,0,.3,0,.3,0,0,0-1.2,0-1.4-.1-.2,0-1-.6-1.2-.6s-.8.1-.8.1c0,0,.7-.5,1.3-.6.6-.1,1.1,0,1.1,0,0,0-.9-.3-1.2-.6-.2-.3-.4-.8-.6-1.1-.2-.2-.3-.6-.6-.6-.3,0-.8.4-1.1.4-.3,0-.5-.2-.5-.7,0-.5,0-.3-.1-.6-.1-.3-.5-.9-.1-1,.4-.1,1.3,0,1.4,0,0-.2-.5-.7-.8-.9-.4-.2-.9-.5-.6-.8.3-.3.6-.4.8-.6.2-.3.4-1,.7-.7.4.2.8,1.3,1.1,1.2.3,0,.3-.9.2-1.2,0-.3,0-.9.3-.9.3,0,.5.5.9.5.4,0,1.1-.1,1,.2,0,.3-.3.8-.6,1.1-.3.4-.4,1.1-.2,1.6.2.5.7,1.2,1.1,1.6.4.3,1.3.5,1.8.9.5.4,1.7,1.4,2.1,1.5.4.1.8.3.8.3,0,0,.5-.2,1.1-.2s2.1.1,2.6-.1c.5-.3,1.3-.7,1-1.2-.2-.5-1.4-1-1.3-1.4.1-.4.5-.5,1.3-.5.7,0,1.8.1,1.9-1,.2-1.1.2-1.8-.8-2-1-.3-1.8-.3-2-1.1-.2-.8-.4-1-.2-1.2.2-.2.6-.3,1.4-.4.8,0,1.6,0,1.9-.3.2-.2.3-.7.6-1,.3-.2,1.5-.4,1.5-.4,0,0,1.4.8,2.7,1.8,1.2,1,2.2,2.4,2.2,2.4"/>
        <path class="st53" d="M272.2,236.3s-.2-.5-.2-.7c0-.1,0-.3,0-.3,0,0,.8,0,.8.3,0,.3-.3.3-.3.4,0,.1-.2.3-.2.3"/>
        <path class="st31" d="M276.1,234.8v-.5c0,0,.7,0,1,.3.5.4.9,1.1.9,1.1,0,.1-.5-.3-.8-.4,0,0-.2,0-.4,0s-.3-.1-.4-.2c0-.1,0-.3,0-.3h-.3c0,0,0,0,0,0Z"/>
        <path class="st9" d="M281.4,241.2s-.3-.5-.4-.7c0-.2-.2-.5-.2-.5"/>
        <path class="st39" d="M261.4,236.1s.5.4.8.4c.4,0,.7,0,.8,0s.2-.6.1-1c-.2-1.3-1.3-1.6-1.3-1.6,0,0,.3.8.2,1.1-.2.5-.6.9-.6.9"/>
        <path class="st11" d="M261.4,236.1s.5.4.8.4c.4,0,.7,0,.8,0s.2-.6.1-1c-.2-1.3-1.3-1.6-1.3-1.6,0,0,.3.8.2,1.1-.2.5-.6.9-.6.9h0Z"/>
        <path class="st39" d="M259.1,237.2s-.4-.8-1.3-.7c-.9.1-1.5.9-1.5.9,0,0,1,0,1.2.1.4.3.5.9.5.9,0,0,.5-.3.7-.6.2-.2.4-.6.4-.6"/>
        <path class="st11" d="M259.1,237.2s-.4-.8-1.3-.7c-.9.1-1.5.9-1.5.9,0,0,1,0,1.2.1.4.3.5.9.5.9,0,0,.5-.3.7-.6.2-.2.4-.6.4-.6Z"/>
        <path class="st39" d="M258.1,240.5s-.7.1-1.1.6c-.4.5-.4,1.5-.4,1.5,0,0,.5-.6.9-.6s1.1.2,1.1.2c0,0-.2-.6-.2-.9s-.3-.9-.3-.9"/>
        <path class="st11" d="M258.1,240.5s-.7.1-1.1.6c-.4.5-.4,1.5-.4,1.5,0,0,.5-.6.9-.6s1.1.2,1.1.2c0,0-.2-.6-.2-.9s-.3-.9-.3-.9Z"/>
        <path class="st48" d="M268.3,243.8s-.8.2-1.1.7c-.4.6-.3,1.1-.3,1.1,0,0,.7-.6,1.5-.3.9.3.9.3,1.3.3.4,0,1.2-.4,1.2-.4,0,0-.7.9-.6,1.5,0,.6.2.9.2,1.2,0,.8-.6,1.7-.6,1.7,0,0,.3-.2,1-.4.7-.2,1.3-.5,1.7-.8.4-.3.9-1.1.9-1.1,0,0-.2,1,0,1.5.2.5.2,1.8.2,1.8,0,0,.5-.4.8-.7.2-.1.7-.4.9-.7.1-.2.3-1.1.3-1.1,0,0,.1,1,.4,1.4.3.4.7,1.8.7,1.8,0,0,.3-.9.6-1.3.3-.4.7-.8.7-1.1,0-.3,0-.9,0-.9l.4.9M267.2,249.7s.5-.9.9-1.2c.4-.3,1-.8,1.2-.8.2,0,.9-.5.9-.5M271.2,252.6s1.1-.6,1.4-.8c.7-.4,1.1-1.2,1.1-1.2"/>
        <path class="st39" d="M260.6,251.2s-.4-.5-1.1-.3c-.7.1-1.2,1-1.2,1,0,0,.6-.2,1,0,.4,0,.6.5.6.5,0,0,.3-.3.4-.5.1-.2.3-.6.3-.6"/>
        <path class="st11" d="M260.6,251.2s-.4-.5-1.1-.3c-.7.1-1.2,1-1.2,1,0,0,.6-.2,1,0,.4,0,.6.5.6.5,0,0,.3-.3.4-.5.1-.2.3-.6.3-.6h0,0Z"/>
        <path class="st39" d="M259.7,254.4s-.6-.1-1.1.3c-.5.5-.5,1.3-.5,1.3,0,0,.5-.5.9-.4.4,0,.8.3.8.3,0,0,0-.5.1-.7,0-.4-.2-.9-.2-.9"/>
        <path class="st11" d="M259.7,254.4s-.6-.1-1.1.3c-.5.5-.5,1.3-.5,1.3,0,0,.5-.5.9-.4.4,0,.8.3.8.3,0,0,0-.5.1-.7,0-.4-.2-.9-.2-.9Z"/>
        <path class="st39" d="M261.1,257.2s0,.8.3,1.4c.4.5,1.1.6,1.1.6,0,0-.2-.6-.3-.8,0-.4.3-.8.3-.8,0,0-.4-.4-.7-.4s-.8,0-.8,0"/>
        <path class="st11" d="M261.1,257.2s0,.8.3,1.4c.4.5,1.1.6,1.1.6,0,0-.2-.6-.3-.8,0-.4.3-.8.3-.8,0,0-.4-.4-.7-.4s-.8,0-.8,0h0Z"/>
        <path class="st4" d="M277.3,258.7s2,1.3,1.9,2.4c0,1.1-1.1,2.5-1.1,2.5"/>
        <path class="st39" d="M268.3,264.7s-.5-.7-1.2-.7c-.7,0-1.4.7-1.4.7,0,0,.9,0,1.1.2.2.3.4.7.4.7,0,0,.4-.2.5-.4.2-.1.5-.6.5-.6"/>
        <path class="st11" d="M268.3,264.7s-.5-.7-1.2-.7c-.7,0-1.4.7-1.4.7,0,0,.9,0,1.1.2.2.3.4.7.4.7,0,0,.4-.2.5-.4.2-.1.5-.6.5-.6h0Z"/>
        <path class="st39" d="M266.1,267.6s-.9-.1-1.3.4c-.4.5-.4,1.4-.4,1.4,0,0,.5-.6,1-.6.5,0,1,.3,1,.3,0,0,0-.6-.1-.8,0-.3-.2-.7-.2-.7"/>
        <path class="st11" d="M266.1,267.6s-.9-.1-1.3.4c-.4.5-.4,1.4-.4,1.4,0,0,.5-.6,1-.6.5,0,1,.3,1,.3,0,0,0-.6-.1-.8,0-.3-.2-.7-.2-.7Z"/>
        <path class="st39" d="M268.1,270.8s-.4.7-.1,1.2c.3.5,1,.8,1,.8,0,0-.2-.4-.1-.9,0-.4.7-.8.7-.8l-1.4-.3"/>
        <g>
          <path class="st11" d="M268.1,270.8s-.4.7-.1,1.2c.3.5,1,.8,1,.8,0,0-.2-.4-.1-.9,0-.4.7-.8.7-.8l-1.4-.3h0s0,0,0,0ZM280.1,272.1s-.8-.2-1.2,0c-.4.3-.8,1.5-.8,1.5,0,0,.7-.6,1.2-.6.5,0,.9.3.9.3,0,0,0-.5,0-.8,0-.2-.1-.5-.1-.5"/>
          <path class="st11" d="M280.1,272.1s-.8-.2-1.2,0c-.4.3-.8,1.5-.8,1.5,0,0,.7-.6,1.2-.6.5,0,.9.3.9.3,0,0,0-.5,0-.8,0-.2-.1-.5-.1-.5h0Z"/>
        </g>
        <g>
          <g>
            <path class="st52" d="M281.7,232.6h-.3c0,0-.1.3-.3.4-.2.3-.6.3-.8,0-.1-.1-.2-.3-.1-.4-.2,0-.3,0-.5,0-.3-.2-.3-.5-.1-.8,0,0,0-.1.1-.2v-.3s-.4,0-.4,0v.2c-.3.3-.6.3-.8.2,0,0,0-.1-.1-.3,0,0,0,0-.2.1-.5.1-.7-1.1-.7-1.4l-.2.3s.2.7,0,1.4c0,.6-.3,1.3-.3,1.3.7.2,1.8.8,2.9,1.7,1.1.9,1.9,1.9,2.3,2.6,0,0,.6-.3,1.1-.5.6-.2,1.3-.2,1.3-.2l.2-.2c-.3,0-1.5.1-1.5-.5,0,0,0,0,0-.2-.2,0-.2,0-.3,0-.2-.1-.2-.5,0-.7h.2c0-.1,0-.5,0-.5h-.3c0,0-.1.1-.1.2-.3.2-.6.3-.8,0-.1-.1-.2-.3-.1-.5-.1,0-.3,0-.4,0-.2-.2-.3-.6-.1-.9,0-.1.3-.3.3-.3v-.3"/>
            <path class="st52" d="M280.4,234.1l-.3-.3c0,0,0-.1,0-.2,0,0,.1,0,.2,0l.3.3.3.3c0,0,0,.1,0,.2,0,0-.1,0-.2,0l-.3-.3M278.8,232.9l-.3-.2c0,0,0-.1,0-.2,0,0,.1,0,.2,0l.2.2.3.2c0,0,0,.1,0,.2,0,0-.1,0-.2,0l-.3-.2"/>
          </g>
          <ellipse class="st5" cx="281.3" cy="234.8" rx=".2" ry=".2" transform="translate(-78.4 304.5) rotate(-50.8)"/>
          <path class="st52" d="M282,235.6l.2.2c0,0,.1,0,.2,0,0,0,0-.1,0-.2l-.2-.2-.2-.2c0,0-.1,0-.2,0,0,0,0,.1,0,.2l.2.2"/>
          <ellipse class="st5" cx="282.8" cy="236.3" rx=".1" ry=".2" transform="translate(-82.6 188.1) rotate(-32.4)"/>
          <g>
            <path class="st52" d="M280.3,230.1h-.6s-.1.9-.1.9h0c0,.1.1.1.1.1l.7-.5c0-.2-.2-.4-.3-.5Z"/>
            <path class="st52" d="M278.7,230.6v.6s.9.1.9.1h.1c0,0,0-.2,0-.2l-.5-.8c-.2,0-.3.2-.5.3h0Z"/>
            <path class="st52" d="M280.6,231.7l-.5.3-.5-.8v-.2s.1,0,.1,0h.9c0,.3,0,.5,0,.7Z"/>
            <ellipse class="st52" cx="279.6" cy="231.1" rx=".3" ry=".3"/>
            <path class="st52" d="M277.3,230.1s-.1-.5-.2-.8c0-.2-.4-.4-.4-.4,0,0,.4-.2.8,0,.4.3,0,.9,0,.9,0,0,0,.1-.2.2"/>
            <path class="st52" d="M278.3,230.4l-.4.4-.7-.6h0c0,0,0-.2,0-.2h.9c0,.1,0,.3,0,.5h0Z"/>
            <path class="st52" d="M277.2,230.1c0-.2.1-.3.2-.3.1,0,.2.1.2.3,0,.2-.1.3-.2.3-.1,0-.2-.1-.2-.3M282.5,231.6h-.6c0,0-.2.8-.2.8v.2s.2,0,.2,0l.8-.4c0-.2-.1-.4-.2-.6h0Z"/>
            <path class="st52" d="M280.9,231.8v.6c0,0,.8.2.8.2h.1s0-.2,0-.2l-.4-.8c-.2,0-.3.1-.5.2Z"/>
            <path class="st52" d="M282.5,233.2l-.5.2-.4-.8v-.2s.2,0,.2,0l.9.2c0,.2,0,.4,0,.6Z"/>
            <ellipse class="st52" cx="281.7" cy="232.5" rx=".3" ry=".3"/>
            <path class="st52" d="M284.4,233.5v.6c.1,0-.7.3-.7.3h-.1s0-.2,0-.2l.4-.9c.2,0,.4,0,.6.1Z"/>
            <path class="st52" d="M284.2,235.2h-.5c0,.1-.3-.7-.3-.7h0c0-.1.1-.2.1-.2l.8.4c0,.2-.1.4-.2.6Z"/>
            <path class="st52" d="M282.8,233.6l-.2.5.8.4h.2s0-.2,0-.2l-.3-.9c-.2,0-.4,0-.5.1Z"/>
            <ellipse class="st52" cx="283.5" cy="234.3" rx=".3" ry=".3"/>
            <path class="st52" d="M285,236.5s.5,0,.8,0c.2,0,.5.3.5.3,0,0,.1-.4-.3-.8-.4-.3-.9.2-.9.2,0,0-.1.1-.1.2"/>
            <path class="st52" d="M284.5,235.5l-.3.5.7.5h0c0,0,.1-.1.1-.1v-.9c-.3,0-.5,0-.7,0Z"/>
            <path class="st52" d="M285,236.6c.2,0,.3-.1.2-.3,0-.1-.2-.2-.3-.1-.2,0-.3.1-.2.3,0,.1.2.2.3.1"/>
          </g>
        </g>
      </g>
      <path class="st86" d="M276.6,235s0,0,0,.1c0,0,0,0,0,0,.2,0,.3,0,.3,0,0-.1,0-.2-.2-.2,0,0-.1,0-.1,0Z"/>
      <g>
        <ellipse class="st5" cx="277.9" cy="232.2" rx=".2" ry=".2" transform="translate(-73.8 318.6) rotate(-53.7)"/>
        <ellipse class="st5" cx="279.7" cy="233.4" rx=".2" ry=".2" transform="translate(-74 320.5) rotate(-53.7)"/>
      </g>
      <path class="st90" d="M234.4,282.7c0-10.7,7.1-19.3,15.8-19.3s15.8,8.6,15.8,19.3-7.1,19.3-15.8,19.3-15.8-8.6-15.8-19.3"/>
      <path class="st65" d="M234.4,282.7c0-10.7,7.1-19.3,15.8-19.3s15.8,8.6,15.8,19.3-7.1,19.3-15.8,19.3-15.8-8.6-15.8-19.3Z"/>
      <path class="st83" d="M239.1,282.6c0-7.8,5-14.2,11.1-14.2s11.1,6.3,11.1,14.2-5,14.2-11.1,14.2-11.1-6.3-11.1-14.2"/>
      <g>
        <path class="st13" d="M239.1,282.6c0-7.8,5-14.2,11.1-14.2s11.1,6.3,11.1,14.2-5,14.2-11.1,14.2-11.1-6.3-11.1-14.2h0Z"/>
        <g>
          <path class="st27" d="M244.9,272.9s-1.3,1.6-1.3,3,.6,2.7.6,2.7c-.2-.6-.7-1-1.4-1s-1.4.7-1.4,1.5.1.6.2.8l.5,1c.2-.4.5-.6,1-.6s1,.5,1,1.1,0,.2,0,.3h-1.2v1.1h1.1l-.8,1.7,1-.4.8,1,.8-1,1,.4-.8-1.7h1.1v-1.1h-1.2c0,0,0-.2,0-.3,0-.6.5-1.1,1-1.1s.8.2,1,.6l.5-1c.1-.2.2-.6.2-.8,0-.8-.6-1.5-1.5-1.5s-1.2.4-1.4,1c0,0,.6-1.2.6-2.7s-1.3-3-1.3-3"/>
          <path class="st27" d="M242.8,282.8h4.2v-1.1h-4.2v1.1ZM255.2,272.9s-1.3,1.6-1.3,3,.6,2.7.6,2.7c-.2-.6-.7-1-1.4-1s-1.4.7-1.4,1.5.1.6.2.8l.5,1c.2-.4.5-.6,1-.6s1,.5,1,1.1,0,.2,0,.3h-1.2v1.1h1.1l-.8,1.7,1-.4.8,1,.8-1,1,.4-.8-1.7h1.1v-1.1h-1.2c0,0,0-.2,0-.3,0-.6.5-1.1,1-1.1s.8.2,1,.6l.5-1c.1-.2.2-.6.2-.8,0-.8-.6-1.5-1.4-1.5s-1.2.4-1.4,1c0,0,.6-1.2.6-2.7s-1.3-3-1.3-3M250.1,282.5s-1.3,1.6-1.3,3,.6,2.7.6,2.7c-.2-.6-.7-1-1.4-1s-1.4.7-1.4,1.5.1.6.2.8l.5,1c.2-.4.5-.6,1-.6s1,.5,1,1.1,0,.2,0,.3h-1.2v1.1h1.1l-.8,1.7,1-.4.8,1,.8-1,1,.4-.8-1.7h1.1v-1.1h-1.2c0,0,0-.2,0-.3,0-.6.5-1.1,1-1.1s.8.2,1,.6l.5-1c.1-.2.2-.6.2-.8,0-.8-.7-1.5-1.5-1.5s-1.2.4-1.4,1c0,0,.6-1.2.6-2.7s-1.3-3-1.3-3"/>
          <path class="st27" d="M248,292.4h4.2v-1.1h-4.2v1.1ZM253.1,282.8h4.2v-1.1h-4.2v1.1Z"/>
        </g>
      </g>
    </g>
    <g>
      <path class="st36" d="M250.2,349.6c-12.7,0-25.2-3.4-35.8-9-7.8-4.2-12.9-12.7-12.9-22.4v-94.1c0,0,97.3,0,97.3,0v58.9s0,35.2,0,35.2c0,9.7-5.2,18.2-13,22.4-10.6,5.6-22.9,9-35.6,9h0Z"/>
      <rect class="st57" x="311.2" y="328.1" width="22.2" height="6.2"/>
      <rect class="st57" x="166.6" y="328.1" width="22.2" height="6.2"/>
    </g>
  </g>
  <g class="st94">
    <g>
      <path class="st92" d="M-.5-1.5v503h751V-1.5H-.5Z"/>
      <path class="st79" d="M-.5-1.5l751,503M750.5-1.5L-.5,501.5"/>
      <g class="st89">
        <path class="st80" d="M-.5-1.5l751,503M750.5-1.5L-.5,501.5"/>
      </g>
      <path class="st78" d="M375-1.5v503M-.5,250h751"/>
      <path class="st77" d="M375-1.5v503M-.5,250h751"/>
    </g>
  </g>
</svg>